<svg width="414" height="736" viewBox="0 0 414 736" fill="none" xmlns="http://www.w3.org/2000/svg">
<rect width="414" height="736" fill="#225094"/>
<path fill-rule="evenodd" clip-rule="evenodd" d="M164.658 169.38H118.9L122.201 160H167.96L164.658 169.38ZM163.006 174.069H117.247L113.945 183.45H159.705L163.006 174.069ZM158.06 188.14H112.302L109 197.52H154.759L158.06 188.14Z" fill="#00A5FF"/>
<path fill-rule="evenodd" clip-rule="evenodd" d="M277.088 218.004H285.408C288.564 218.004 290.477 217.262 291.816 215.593C292.486 214.758 293.442 213.274 293.442 210.492C293.442 207.71 292.486 205.763 290.573 204.372C289.426 203.537 287.895 203.074 285.313 203.074H277.088V218.004ZM266.089 226.999V173.4H302.05L298.894 182.395H277.088V194.264H285.982C293.155 194.264 296.885 195.934 299.467 198.067C301.476 199.736 304.919 203.445 304.919 210.771C304.919 218.004 301.38 221.992 298.415 224.031C294.972 226.35 291.339 226.999 283.974 226.999H266.089ZM234.241 226.999V182.395H218.269V173.4H262.646L259.49 182.395H245.335V226.999H234.241ZM189.96 194.821H196.177C198.089 194.821 199.045 194.821 200.002 194.542C202.584 193.801 204.21 191.575 204.21 188.515C204.21 184.898 202.489 183.322 200.002 182.58C198.95 182.302 197.898 182.209 195.794 182.209H189.96V194.821ZM190.056 204.094V218.189H197.707C200.002 218.189 202.106 218.004 203.636 216.612C205.166 215.222 205.836 213.46 205.836 211.142C205.836 209.38 205.358 207.71 204.402 206.505C202.776 204.557 200.767 204.094 197.324 204.094H190.056ZM207.748 198.438V198.624C209.852 199.366 211.86 200.664 212.912 201.499C216.164 204.095 217.599 207.526 217.599 211.977C217.599 219.303 213.582 224.589 206.983 226.258C204.974 226.814 202.871 227 198.949 227H178.96V173.4H196.654C200.288 173.4 202.775 173.586 204.974 174.143C211.382 175.812 215.591 180.077 215.591 186.847C215.591 190.464 214.251 193.524 212.052 195.564C211.095 196.491 209.756 197.604 207.748 198.438Z" fill="white"/>
<path d="M92.0537 282H87.6445V264.524H78.3428V282H73.9043V260.862H92.0537V282ZM97.5176 287.815C96.5801 287.815 96.043 287.801 95.9062 287.771V284.476C95.9941 284.495 96.3506 284.505 96.9756 284.505C97.7666 284.505 98.3672 284.368 98.7773 284.095C99.1875 283.831 99.4658 283.387 99.6123 282.762C99.6123 282.752 99.6367 282.63 99.6855 282.396C99.7344 282.161 99.7539 282.034 99.7441 282.015L94.2803 266.297H98.9824L102.322 278.572H102.396L105.735 266.297H110.247L104.842 282.352C104.168 284.363 103.279 285.774 102.176 286.585C101.082 287.405 99.5293 287.815 97.5176 287.815ZM124.822 266.297V269.52H120.149V282H115.887V269.52H111.199V266.297H124.822ZM133.626 273.987H131.268V278.807H133.626C134.397 278.807 135.013 278.587 135.472 278.147C135.94 277.698 136.175 277.112 136.175 276.39C136.175 275.667 135.94 275.086 135.472 274.646C135.013 274.207 134.397 273.987 133.626 273.987ZM127.005 282V266.297H131.268V270.838H134.329C136.185 270.838 137.659 271.341 138.753 272.347C139.856 273.353 140.408 274.71 140.408 276.419C140.408 278.128 139.856 279.485 138.753 280.491C137.659 281.497 136.185 282 134.329 282H127.005ZM155.467 269.007H152.933V272.654H155.247C156.028 272.654 156.624 272.498 157.034 272.186C157.454 271.863 157.664 271.404 157.664 270.809C157.664 270.232 157.474 269.788 157.093 269.476C156.712 269.163 156.17 269.007 155.467 269.007ZM155.467 275.13H152.933V279.29H155.657C156.497 279.29 157.137 279.114 157.576 278.763C158.025 278.401 158.25 277.879 158.25 277.195C158.25 275.818 157.322 275.13 155.467 275.13ZM148.743 282V266.297H156.609C158.24 266.297 159.52 266.648 160.447 267.352C161.375 268.045 161.839 269.012 161.839 270.252C161.839 271.092 161.565 271.839 161.019 272.493C160.481 273.138 159.808 273.523 158.997 273.65V273.768C160.052 273.895 160.906 274.295 161.561 274.969C162.215 275.643 162.542 276.473 162.542 277.459C162.542 278.836 162.02 279.939 160.975 280.77C159.939 281.59 158.533 282 156.756 282H148.743ZM175.257 282H171.067V266.297H175.257V276.111H175.374L181.614 266.297H185.804V282H181.614V272.068H181.497L175.257 282ZM199.178 282V275.569H193.143V282H188.88V266.297H193.143V272.332H199.178V266.297H203.44V282H199.178ZM213.24 269.007H210.706V272.654H213.021C213.802 272.654 214.397 272.498 214.808 272.186C215.228 271.863 215.438 271.404 215.438 270.809C215.438 270.232 215.247 269.788 214.866 269.476C214.485 269.163 213.943 269.007 213.24 269.007ZM213.24 275.13H210.706V279.29H213.431C214.271 279.29 214.91 279.114 215.35 278.763C215.799 278.401 216.023 277.879 216.023 277.195C216.023 275.818 215.096 275.13 213.24 275.13ZM206.517 282V266.297H214.383C216.014 266.297 217.293 266.648 218.221 267.352C219.148 268.045 219.612 269.012 219.612 270.252C219.612 271.092 219.339 271.839 218.792 272.493C218.255 273.138 217.581 273.523 216.771 273.65V273.768C217.825 273.895 218.68 274.295 219.334 274.969C219.988 275.643 220.315 276.473 220.315 277.459C220.315 278.836 219.793 279.939 218.748 280.77C217.713 281.59 216.307 282 214.529 282H206.517ZM229.939 269.124C229.012 269.124 228.235 269.441 227.61 270.076C226.995 270.711 226.648 271.521 226.57 272.508H233.235C233.187 271.502 232.859 270.687 232.254 270.062C231.658 269.437 230.887 269.124 229.939 269.124ZM233.294 277.195H237.22C236.985 278.738 236.214 279.983 234.905 280.931C233.606 281.868 231.99 282.337 230.057 282.337C227.645 282.337 225.75 281.614 224.373 280.169C223.006 278.724 222.322 276.741 222.322 274.222C222.322 271.712 223.006 269.71 224.373 268.216C225.74 266.712 227.581 265.96 229.896 265.96C232.171 265.96 233.982 266.673 235.33 268.099C236.678 269.524 237.352 271.434 237.352 273.826V275.13H226.526V275.394C226.526 276.517 226.854 277.43 227.508 278.133C228.172 278.826 229.046 279.173 230.13 279.173C230.911 279.173 231.585 278.997 232.151 278.646C232.718 278.284 233.099 277.801 233.294 277.195ZM253.963 271.658H249.964C249.778 270.945 249.427 270.379 248.909 269.959C248.392 269.529 247.742 269.314 246.961 269.314C245.906 269.314 245.071 269.744 244.456 270.604C243.851 271.463 243.548 272.64 243.548 274.134C243.548 275.657 243.851 276.849 244.456 277.708C245.071 278.558 245.911 278.982 246.976 278.982C247.767 278.982 248.421 278.777 248.938 278.367C249.456 277.957 249.808 277.381 249.993 276.639H253.978C253.782 278.387 253.055 279.773 251.795 280.799C250.535 281.824 248.914 282.337 246.932 282.337C244.568 282.337 242.693 281.604 241.307 280.14C239.93 278.675 239.241 276.673 239.241 274.134C239.241 271.634 239.93 269.646 241.307 268.172C242.693 266.697 244.559 265.96 246.902 265.96C248.885 265.96 250.501 266.487 251.751 267.542C253.011 268.597 253.748 269.969 253.963 271.658ZM268.699 266.297V269.52H264.026V282H259.764V269.52H255.076V266.297H268.699ZM275.071 282H270.882V266.297H275.071V276.111H275.188L281.429 266.297H285.618V282H281.429V272.068H281.312L275.071 282ZM305.408 286.072H301.512V282H288.694V266.297H292.957V278.763H298.772V266.297H303.035V278.763H305.408V286.072ZM311.517 282H307.327V266.297H311.517V276.111H311.634L317.874 266.297H322.063V282H317.874V272.068H317.757L311.517 282ZM329.329 282H325.14V266.297H329.329V276.111H329.446L335.687 266.297H339.876V282H335.687V272.068H335.569L329.329 282Z" fill="white"/>
<path d="M274.425 600.587H267.363V600.79H274.425V600.587Z" fill="#EBEBEB"/>
<path d="M343.141 590.835H327.547V591.038H343.141V590.835Z" fill="#EBEBEB"/>
<path d="M95.375 592.2H90.231V592.404H95.375V592.2Z" fill="#EBEBEB"/>
<path d="M188.228 595.63H112.1V595.833H188.228V595.63Z" fill="#EBEBEB"/>
<path d="M354.12 581.62L353.739 525.548L345.409 518.51L341.557 499.974L336.567 494.156L333.886 481.153L329.335 487.061L326.759 522.557L324.183 518.494L322.135 504.679L318.023 509.1L312.879 510.384L309.88 539.704L233.492 548.822L217.605 535.267L211.104 508.726L204.399 501.811L202.36 489.02L195.948 491.238V504.736L190.544 507.873L188.212 535.267L181.369 544.734L179.427 527.807C179.427 527.807 174.185 523.614 173.023 522.606C171.861 521.598 165.255 503.184 166.254 501.811C167.254 500.437 164.824 488.491 164.824 488.491L158.217 492.441V512.229L151.326 513.976L150.286 522.606L132.7 525.442L129.872 512.229H122.03L119.592 519.762L112.457 519.713L101.17 527.84L91.8893 509.62L82.4464 514.008L75.6446 498.227L68.5015 507.475L65.8522 537.486L62.1466 537.843L60.4482 531.342L53.5732 537.843V581.588L354.12 581.62Z" fill="#F5F5F5"/>
<path d="M227.154 431.907H185.002C183.257 431.827 181.611 431.071 180.413 429.799C179.214 428.527 178.558 426.839 178.582 425.092C178.606 423.344 179.31 421.675 180.543 420.437C181.776 419.199 183.442 418.489 185.189 418.458C185.845 418.456 186.496 418.552 187.123 418.742C187.023 418.059 186.971 417.369 186.969 416.678C186.969 412.898 188.471 409.272 191.144 406.599C193.817 403.926 197.442 402.424 201.223 402.424C202.103 402.423 202.982 402.504 203.848 402.668C205.25 400.355 207.367 398.562 209.878 397.559C212.39 396.556 215.16 396.399 217.77 397.11C220.379 397.822 222.685 399.364 224.341 401.503C225.996 403.642 226.909 406.262 226.943 408.966H227.154C230.146 409.046 232.988 410.29 235.075 412.434C237.163 414.578 238.331 417.452 238.331 420.445C238.331 423.437 237.163 426.311 235.075 428.455C232.988 430.599 230.146 431.844 227.154 431.923V431.907Z" fill="#F5F5F5"/>
<path d="M252.386 364.75H236.532C235.861 364.742 235.222 364.467 234.754 363.987C234.286 363.507 234.028 362.861 234.037 362.19C234.045 361.52 234.32 360.881 234.8 360.413C235.28 359.945 235.926 359.687 236.597 359.696C236.844 359.692 237.091 359.728 237.328 359.801C237.286 359.532 237.267 359.261 237.271 358.989C237.271 358.285 237.41 357.588 237.68 356.937C237.949 356.287 238.344 355.696 238.843 355.199C239.341 354.702 239.932 354.307 240.583 354.039C241.233 353.77 241.931 353.632 242.635 353.633C242.964 353.634 243.293 353.664 243.618 353.723C244.146 352.849 244.945 352.171 245.894 351.794C246.843 351.416 247.889 351.36 248.873 351.632C249.857 351.905 250.725 352.491 251.345 353.303C251.965 354.115 252.302 355.107 252.305 356.128H252.386C253.499 356.176 254.551 356.653 255.321 357.457C256.092 358.262 256.522 359.333 256.522 360.447C256.522 361.561 256.092 362.633 255.321 363.437C254.551 364.242 253.499 364.718 252.386 364.766V364.75Z" fill="#F5F5F5"/>
<path d="M107.931 369.683H92.0765C91.7446 369.678 91.4169 369.608 91.1121 369.476C90.8073 369.345 90.5314 369.155 90.3001 368.916C89.833 368.436 89.576 367.789 89.5857 367.119C89.5954 366.448 89.871 365.809 90.3518 365.342C90.8326 364.875 91.4793 364.618 92.1496 364.628C92.3947 364.625 92.6387 364.661 92.8728 364.734C92.8357 364.464 92.8167 364.193 92.816 363.921C92.8181 362.499 93.3839 361.136 94.3893 360.131C95.3946 359.125 96.7576 358.56 98.1794 358.558C98.5096 358.557 98.839 358.59 99.1627 358.655C99.6889 357.784 100.485 357.108 101.43 356.73C102.374 356.351 103.417 356.291 104.399 356.559C105.381 356.826 106.249 357.406 106.872 358.211C107.494 359.016 107.838 360.002 107.85 361.02H107.931C109.044 361.068 110.096 361.544 110.866 362.349C111.637 363.154 112.067 364.225 112.067 365.339C112.067 366.453 111.637 367.524 110.866 368.329C110.096 369.134 109.044 369.61 107.931 369.658V369.683Z" fill="#F5F5F5"/>
<path d="M107.931 416.824H92.0765C91.7446 416.819 91.4169 416.749 91.1121 416.617C90.8073 416.486 90.5314 416.296 90.3001 416.057C89.833 415.577 89.576 414.93 89.5857 414.26C89.5954 413.589 89.871 412.95 90.3518 412.483C90.8326 412.016 91.4793 411.759 92.1496 411.769C92.3944 411.77 92.6378 411.806 92.8728 411.875C92.8357 411.605 92.8167 411.334 92.816 411.062C92.8181 409.641 93.3841 408.279 94.3897 407.275C95.3954 406.271 96.7583 405.707 98.1794 405.707C98.5092 405.707 98.8382 405.737 99.1627 405.796C99.6893 404.924 100.486 404.248 101.431 403.87C102.377 403.492 103.42 403.432 104.403 403.701C105.385 403.969 106.253 404.551 106.875 405.357C107.497 406.163 107.84 407.151 107.85 408.169H107.931C109.044 408.217 110.096 408.693 110.866 409.498C111.637 410.303 112.067 411.374 112.067 412.488C112.067 413.602 111.637 414.673 110.866 415.478C110.096 416.283 109.044 416.759 107.931 416.807V416.824Z" fill="#F5F5F5"/>
<path d="M341.517 428.948H318.584C317.614 428.934 316.689 428.536 316.014 427.84C315.338 427.144 314.966 426.208 314.98 425.239C314.994 424.269 315.393 423.344 316.088 422.668C316.784 421.992 317.72 421.621 318.69 421.635C319.045 421.632 319.399 421.684 319.738 421.789C319.686 421.415 319.659 421.037 319.657 420.659C319.657 418.603 320.473 416.631 321.927 415.177C323.381 413.724 325.353 412.907 327.409 412.907C327.889 412.907 328.368 412.953 328.839 413.045C329.604 411.791 330.756 410.819 332.12 410.276C333.485 409.733 334.99 409.648 336.407 410.034C337.824 410.42 339.078 411.256 339.979 412.416C340.88 413.576 341.38 414.997 341.403 416.466H341.517C342.356 416.436 343.192 416.575 343.976 416.875C344.761 417.175 345.476 417.631 346.08 418.214C346.685 418.796 347.165 419.495 347.494 420.268C347.822 421.041 347.991 421.872 347.991 422.711C347.991 423.551 347.822 424.382 347.494 425.155C347.165 425.928 346.685 426.626 346.08 427.209C345.476 427.792 344.761 428.247 343.976 428.547C343.192 428.848 342.356 428.987 341.517 428.956V428.948Z" fill="#F5F5F5"/>
<path d="M169.855 377.549H146.922C145.994 377.475 145.129 377.051 144.503 376.363C143.876 375.674 143.535 374.774 143.548 373.843C143.562 372.912 143.929 372.021 144.575 371.351C145.221 370.682 146.098 370.283 147.028 370.235C147.383 370.237 147.736 370.289 148.076 370.39C148.02 370.019 147.993 369.644 147.995 369.268C147.995 367.212 148.811 365.24 150.265 363.786C151.719 362.333 153.691 361.516 155.747 361.516C156.227 361.518 156.705 361.561 157.177 361.646C157.942 360.391 159.095 359.419 160.46 358.876C161.826 358.333 163.331 358.249 164.749 358.636C166.167 359.023 167.42 359.86 168.321 361.022C169.221 362.183 169.719 363.606 169.741 365.075H169.855C171.472 365.134 173.004 365.817 174.127 366.982C175.251 368.147 175.879 369.702 175.879 371.32C175.879 372.939 175.251 374.494 174.127 375.659C173.004 376.824 171.472 377.507 169.855 377.565V377.549Z" fill="#F5F5F5"/>
<path d="M242.554 504.752C240.831 492.18 246.146 478.064 253.606 468.735C255.069 467.089 256.36 465.298 257.458 463.388C260.546 457.334 255.743 453.092 251.265 449.695C234.338 436.864 253.354 434.637 262.236 427.323C263.088 426.739 263.712 425.878 264 424.885C264.308 423.26 262.911 421.797 261.643 420.692C255.556 415.312 247.917 409.965 246.552 401.319C245.983 397.719 246.877 393.761 249.486 391.209C256.052 384.806 293.71 392.38 286.697 375.436C285.673 372.957 284.169 370.414 284.714 367.789C288.102 351.536 328.149 357.94 338.974 358.484C329.774 358.028 320.562 359.111 311.718 361.686C307.655 362.873 302.99 365.172 302.559 369.39C302.129 373.608 306.046 376.574 309.06 378.638C313.668 381.783 319.487 386.61 314.611 392.453C308.427 399.88 296.383 400.904 287.647 403.228C284.592 404.041 281.293 405.276 281.146 408.982C281.049 411.087 281.959 413.102 282.991 414.938C285.177 418.872 287.972 422.488 289.687 426.649C291.402 430.809 291.556 436.36 288.631 440.187C283.023 447.55 272.906 445.526 280.13 457.74C289.24 473.18 288.753 491.27 282.065 507.58C278.7 515.771 272.549 525.23 262.764 525.823C257.344 526.157 252.046 523.255 248.6 519.054C245.299 514.939 243.206 509.987 242.554 504.752Z" fill="#E0E0E0"/>
<path d="M59.7088 566.382L73.1418 563.701L76.1648 526.994L85.3233 520.647L88.5169 489.165L96.749 479.901L100.577 487.117L106.826 498.494L108.914 509.685L112.457 519.68L120.112 531.65L126.987 525.515C126.987 525.515 130.734 519.436 132.53 518.64C134.326 517.843 141.647 517.177 141.647 517.177L151.838 526.929V534.592L162.264 540.15L168.676 546.595L172.512 551.332L179.638 555.038C195.298 544.23 234.085 513.91 242.716 473.644L252.467 482.819L259.415 471.897L264.86 483.396L261.016 495.504L267.712 501.607L264.86 513.837L272.832 501.607L268.558 492.968L271.808 485.354L269.37 474.083L276.903 470.678L286.517 485.354L293.083 473.652C293.083 473.652 301.25 534.722 369.471 584.984H45L59.7088 566.382Z" fill="#EBEBEB"/>
<path d="M208.422 622C295.442 622 365.985 617.881 365.985 612.801C365.985 607.72 295.442 603.602 208.422 603.602C121.402 603.602 50.8589 607.72 50.8589 612.801C50.8589 617.881 121.402 622 208.422 622Z" fill="#F5F5F5"/>
<path d="M272.981 429.592L261.836 429.882C260.18 429.925 258.873 431.302 258.916 432.958L259.206 444.104C259.249 445.759 260.626 447.066 262.281 447.023L273.427 446.733C275.083 446.69 276.39 445.313 276.347 443.658L276.057 432.512C276.014 430.856 274.637 429.549 272.981 429.592Z" fill="#316FCC"/>
<path d="M269.671 445.495C269.671 445.495 267.558 450.696 262.56 452.435C262.56 452.435 265.307 450.753 264.957 445.397L269.671 445.495Z" fill="#316FCC"/>
<g opacity="0.5">
<path opacity="0.5" d="M266.591 441.952C266.591 441.814 266.618 441.678 266.673 441.551C266.727 441.425 266.806 441.31 266.905 441.215C267.005 441.12 267.123 441.047 267.252 440.999C267.381 440.951 267.518 440.929 267.655 440.936C267.791 440.93 267.927 440.952 268.054 441.001C268.181 441.05 268.297 441.124 268.395 441.219C268.492 441.314 268.569 441.428 268.621 441.554C268.672 441.68 268.698 441.815 268.696 441.952C268.698 442.088 268.672 442.224 268.621 442.351C268.569 442.478 268.493 442.593 268.395 442.689C268.298 442.786 268.183 442.861 268.055 442.912C267.928 442.963 267.792 442.987 267.655 442.984C267.517 442.988 267.379 442.964 267.25 442.915C267.121 442.865 267.004 442.789 266.905 442.693C266.805 442.597 266.726 442.482 266.672 442.354C266.619 442.227 266.591 442.09 266.591 441.952ZM266.68 433.663H268.631L268.297 439.831H266.997L266.68 433.663Z" fill="white"/>
</g>
<path d="M256.019 559.475L252.696 563.05L245.13 555.761L248.445 552.185L256.019 559.475Z" fill="#EEC1BB"/>
<path opacity="0.2" d="M248.445 552.185L245.13 555.761L249.039 559.523L252.354 555.94L248.445 552.185Z" fill="black"/>
<path d="M251.492 561.847L256.368 559.149C256.448 559.101 256.541 559.082 256.633 559.095C256.725 559.108 256.81 559.153 256.872 559.223L259.521 562.335C259.579 562.409 259.62 562.493 259.644 562.583C259.668 562.673 259.674 562.767 259.661 562.86C259.648 562.952 259.617 563.041 259.569 563.121C259.522 563.201 259.458 563.271 259.383 563.326C259.348 563.358 259.306 563.383 259.261 563.4C257.563 564.302 256.645 564.708 254.524 565.878C253.223 566.593 247.73 569.129 245.763 569.129C243.797 569.129 243.683 567.276 244.496 567.032C248.624 565.772 250.314 563.944 250.924 562.465C251.043 562.204 251.242 561.987 251.492 561.847Z" fill="#263238"/>
<path d="M250.428 563.335C250.153 563.513 249.829 563.602 249.502 563.587C249.397 563.568 249.299 563.523 249.218 563.454C249.136 563.386 249.074 563.297 249.039 563.197C249.009 563.14 248.993 563.077 248.993 563.014C248.993 562.95 249.009 562.887 249.039 562.831C249.404 562.343 251.192 562.368 251.395 562.376C251.415 562.375 251.435 562.381 251.451 562.393C251.467 562.405 251.479 562.421 251.485 562.441C251.496 562.461 251.502 562.483 251.502 562.506C251.502 562.529 251.496 562.551 251.485 562.571C251.159 562.86 250.805 563.116 250.428 563.335ZM249.372 562.855C249.325 562.878 249.283 562.912 249.25 562.953C249.234 562.974 249.226 563 249.226 563.026C249.226 563.052 249.234 563.078 249.25 563.099C249.272 563.168 249.312 563.229 249.366 563.277C249.421 563.324 249.487 563.355 249.559 563.367C250.16 563.293 250.713 563.004 251.119 562.555C250.523 562.547 249.931 562.649 249.372 562.855Z" fill="#316FCC"/>
<path d="M251.493 562.587H251.436C250.884 562.587 249.575 562.189 249.437 561.694C249.417 561.609 249.426 561.521 249.463 561.443C249.5 561.364 249.563 561.301 249.64 561.263C249.71 561.213 249.789 561.177 249.873 561.157C249.956 561.138 250.043 561.135 250.128 561.149C250.827 561.255 251.509 562.368 251.534 562.433C251.548 562.459 251.553 562.49 251.545 562.519C251.537 562.547 251.519 562.572 251.493 562.587ZM249.77 561.409H249.721C249.6 561.499 249.616 561.564 249.624 561.588C249.705 561.88 250.591 562.246 251.184 562.319C250.965 562.01 250.485 561.401 250.047 561.336C249.952 561.319 249.854 561.336 249.77 561.385V561.409Z" fill="#316FCC"/>
<path d="M310.881 567.284L308.166 571.348L299.536 565.35L302.25 561.287L310.881 567.284Z" fill="#EEC1BB"/>
<path d="M307.468 571.088L310.352 566.317C310.397 566.236 310.469 566.173 310.555 566.139C310.641 566.105 310.736 566.102 310.824 566.13L314.676 567.512C314.848 567.585 314.984 567.724 315.054 567.898C315.124 568.071 315.123 568.266 315.05 568.438C315.03 568.484 315.006 568.528 314.976 568.568C313.952 570.194 313.351 571.006 312.1 573.07C311.328 574.338 307.825 579.271 306.119 580.27C304.412 581.27 303.396 579.693 303.981 579.068C306.939 575.923 307.492 573.501 307.281 571.916C307.247 571.627 307.313 571.335 307.468 571.088Z" fill="#263238"/>
<path opacity="0.2" d="M302.25 561.287L299.536 565.35L303.989 568.438L306.704 564.375L302.25 561.287Z" fill="black"/>
<path d="M307.281 572.899C307.132 573.194 306.893 573.433 306.598 573.582C306.499 573.618 306.392 573.627 306.288 573.609C306.183 573.59 306.086 573.544 306.005 573.476C305.953 573.44 305.91 573.392 305.882 573.335C305.853 573.278 305.84 573.215 305.843 573.151C305.916 572.542 307.468 571.672 307.655 571.583C307.671 571.571 307.691 571.564 307.712 571.564C307.732 571.564 307.752 571.571 307.769 571.583C307.78 571.603 307.786 571.625 307.786 571.648C307.786 571.671 307.78 571.693 307.769 571.713C307.647 572.124 307.483 572.521 307.281 572.899ZM306.119 573.013C306.093 573.058 306.077 573.108 306.07 573.159C306.067 573.184 306.071 573.209 306.081 573.232C306.091 573.255 306.107 573.275 306.127 573.289C306.181 573.338 306.248 573.371 306.32 573.384C306.392 573.397 306.466 573.389 306.533 573.362C307.018 573.013 307.364 572.504 307.509 571.924C306.983 572.199 306.512 572.568 306.119 573.013Z" fill="#316FCC"/>
<path d="M307.801 571.746H307.753C307.281 572.038 305.94 572.331 305.575 571.965C305.516 571.903 305.48 571.822 305.473 571.737C305.465 571.651 305.487 571.566 305.534 571.494C305.575 571.413 305.633 571.342 305.703 571.285C305.772 571.228 305.853 571.185 305.94 571.161C306.59 570.909 307.744 571.526 307.801 571.575C307.82 571.585 307.834 571.601 307.843 571.62C307.852 571.639 307.854 571.66 307.85 571.681C307.848 571.695 307.843 571.708 307.834 571.72C307.826 571.731 307.814 571.74 307.801 571.746ZM305.762 571.583V571.624C305.697 571.762 305.762 571.811 305.762 571.835C305.973 572.047 306.932 571.925 307.484 571.689C307.035 571.438 306.517 571.335 306.005 571.396C305.912 571.43 305.834 571.497 305.786 571.583H305.762Z" fill="#316FCC"/>
<path d="M304.754 562.433L304.234 563.246L303.795 563.928L301.219 567.837C301.219 567.837 277.994 553.949 275.214 551.649C272.435 549.349 257.718 522.012 257.718 522.012C257.474 522.085 247.568 525.263 240.376 528.148C236.208 529.814 232.957 531.398 233.006 532.146C233.144 534.291 251.339 554.705 251.339 554.705L246.536 557.801C246.536 557.801 216.785 537.842 217.663 528.586C218.541 519.33 248.462 508.498 248.462 508.498L249.015 494.683L265.747 496.902L266.625 497.015L268.039 497.202C274.109 511.196 281.374 540.752 282.276 543.19C283.178 545.628 304.754 562.433 304.754 562.433Z" fill="#316FCC"/>
<path d="M304.233 563.221L303.794 563.904C297.618 559.45 280.155 546.611 279.521 543.344C278.887 540.077 267.437 502.492 265.746 496.934C265.608 496.511 265.543 496.284 265.535 496.251L266.348 496.016L266.665 497.048C268.729 503.809 279.667 539.801 280.358 543.189C280.797 545.619 294.23 556.013 304.233 563.221Z" fill="white"/>
<path d="M209.374 467.338L202.279 464.745C202.243 464.105 202.045 463.484 201.702 462.941C201.174 462.267 194.909 459.593 194.933 460.503C194.957 461.413 194.413 463.754 195.876 465.062C197.338 466.371 201.158 468.313 201.889 467.297L207.813 470.718L209.374 467.338Z" fill="#EEC1BB"/>
<path d="M237.597 482.063C237.597 482.063 233.241 481.136 228.739 480.145L222.587 478.779C217.305 477.561 205.367 472.043 204.953 470.499C204.538 468.955 205.96 465.737 208.09 465.915C210.219 466.094 222.92 470.263 222.92 470.263L234.988 470.426L236.223 475.976L237.597 482.063Z" fill="#316FCC"/>
<path d="M226.943 471.709C225.622 471.778 224.298 471.778 222.977 471.709C222.652 471.653 221.62 471.319 219.669 470.686C215.517 469.328 207.789 466.817 205.562 466.866V466.053C207.927 466.005 215.452 468.451 219.938 469.913C221.506 470.417 222.855 470.856 223.139 470.913C223.952 471.059 231.095 470.832 235.711 470.645V471.458C234.971 471.458 230.413 471.636 226.943 471.709Z" fill="white"/>
<path d="M204.628 465.062L207.123 466.07L204.921 470.174L203.393 469.15L204.628 465.062Z" fill="#316FCC"/>
<path opacity="0.2" d="M204.628 465.062L207.123 466.07L204.921 470.174L203.393 469.15L204.628 465.062Z" fill="black"/>
<path opacity="0.2" d="M237.598 482.062C237.598 482.062 233.242 481.136 228.74 480.144C229.65 477.438 234.054 476.358 236.224 475.976L237.598 482.062Z" fill="black"/>
<path d="M269.55 493.863C269.593 494.315 269.48 494.768 269.23 495.148C268.981 495.528 268.609 495.811 268.177 495.951C268.006 496.008 267.828 496.041 267.649 496.049H267.364L249.007 496.91C248.562 496.933 248.123 496.806 247.759 496.549C247.395 496.293 247.128 495.922 246.999 495.496C246.75 494.664 246.446 493.85 246.089 493.058C244.444 489.508 242.141 486.301 239.304 483.607C238.491 482.794 237.565 481.982 236.557 481.169C235.708 480.506 235.009 479.669 234.508 478.715C234.006 477.761 233.713 476.711 233.648 475.635C233.563 474.199 233.842 472.765 234.46 471.466C234.605 471.173 234.765 470.888 234.94 470.613L235.046 470.45C235.046 470.45 250.486 467.923 259.14 470.995C264.969 477.306 268.618 485.322 269.55 493.863Z" fill="#316FCC"/>
<path d="M268.177 495.951C268.187 496.339 268.143 496.728 268.047 497.105L267.234 496.861C267.315 496.598 267.348 496.323 267.332 496.048C267.372 491.01 259.888 473.335 258.506 472.482C253.549 470.044 238.304 471.084 234.403 471.401C234.548 471.108 234.708 470.823 234.883 470.547C239.564 470.182 253.866 469.296 258.88 471.75C260.432 472.547 268.128 490.059 268.177 495.951Z" fill="white"/>
<path d="M248.218 496.438L268.965 495.454L269.769 498.542L248.365 499.558L248.218 496.438Z" fill="#316FCC"/>
<path opacity="0.2" d="M248.218 496.438L268.965 495.454L269.769 498.542L248.365 499.558L248.218 496.438Z" fill="black"/>
<path d="M240.58 469.199C241.116 468.199 247.991 466.631 248.812 467.305C249.632 467.98 249.567 470.182 249.567 470.182C249.567 470.182 244.692 473.806 242.717 473.042C240.742 472.279 240.58 469.199 240.58 469.199Z" fill="#316FCC"/>
<path opacity="0.4" d="M240.58 469.199C241.116 468.199 247.991 466.631 248.812 467.305C249.632 467.98 249.567 470.182 249.567 470.182C249.567 470.182 244.692 473.806 242.717 473.042C240.742 472.279 240.58 469.199 240.58 469.199Z" fill="black"/>
<path d="M249.551 469.743C249.396 471.799 247.625 473.96 243.716 474.261C241.278 474.456 240.733 473.448 240.831 472.79C242.066 471.929 241.424 471.872 241.644 470.937C241.928 469.458 241.14 467.955 240.165 466.582V466.533L242.602 462.031L244.228 458.918C244.797 462.364 246.471 468.483 249.551 469.743Z" fill="#EEC1BB"/>
<path opacity="0.2" d="M244.374 462.047C244.678 463.642 244.586 465.288 244.104 466.838C243.622 468.389 242.766 469.797 241.611 470.938C241.895 469.459 241.107 467.955 240.132 466.582C240.132 466.582 240.132 466.533 240.132 466.525L242.57 462.023C242.862 462.535 244.228 461.454 244.374 462.047Z" fill="black"/>
<path d="M240.579 469.198C240.8 469.722 241.178 470.164 241.662 470.463C242.145 470.762 242.71 470.902 243.277 470.864C245.309 470.767 248.811 467.305 248.811 467.305L251.599 469.597C251.599 469.597 247.113 475.374 243.765 475.285C240.417 475.196 239.352 471.644 239.352 471.644L240.579 469.198Z" fill="#316FCC"/>
<path opacity="0.2" d="M240.579 469.198C240.8 469.722 241.178 470.164 241.662 470.463C242.145 470.762 242.71 470.902 243.277 470.864C245.309 470.767 248.811 467.305 248.811 467.305L251.599 469.597C251.599 469.597 247.113 475.374 243.765 475.285C240.417 475.196 239.352 471.644 239.352 471.644L240.579 469.198Z" fill="black"/>
<path d="M252.899 499.421L252.143 496.479C251.475 495.952 251.041 495.185 250.932 494.342C250.623 493.155 250.12 491.164 247.43 487.215C242.911 480.543 243.285 475.838 243.366 475.253L242.879 470.905L243.692 470.816L244.179 475.269V475.318C244.179 475.366 243.57 480.064 248.112 486.768C250.867 490.831 251.404 492.903 251.72 494.147C251.756 494.497 251.866 494.837 252.042 495.142C252.219 495.448 252.458 495.712 252.744 495.918L252.866 495.999L253.679 499.25L252.899 499.421Z" fill="#263238"/>
<path opacity="0.2" d="M256.466 489.352C254.296 491.367 249.364 492.521 246.089 493.09C244.447 489.528 242.144 486.31 239.303 483.607C242.838 483.152 247.958 482.518 247.958 482.518C249.859 478.373 252.135 474.489 254.548 473.335C256.791 472.27 260.196 475.163 260.481 477.756C260.765 480.348 259.855 486.215 256.466 489.352Z" fill="black"/>
<path d="M234.818 451.012C234.623 450.611 234.512 450.174 234.493 449.729C234.474 449.283 234.546 448.838 234.707 448.422C234.867 448.006 235.111 447.627 235.423 447.309C235.736 446.992 236.111 446.742 236.524 446.575C239.612 445.031 247.901 446.981 249.9 450.118C251.899 453.255 254.118 453.897 254.118 453.897C253.978 454.296 253.707 454.637 253.348 454.861C252.989 455.086 252.564 455.181 252.143 455.132C252.63 455.265 253.062 455.549 253.377 455.944C253.693 456.338 253.875 456.822 253.898 457.326C253.255 457.528 252.642 457.818 252.078 458.187C251.688 458.577 252.078 460.625 251.046 460.446C250.014 460.268 250.233 460.121 249.6 461.259C248.966 462.397 246.406 464.705 245.414 463.77C244.423 462.836 233.802 454.287 233.802 454.287C233.802 454.287 233.095 450.776 234.818 451.012Z" fill="#263238"/>
<path d="M246.219 457.326C245.593 461.389 245.365 464.014 243.537 466.046C243.286 466.324 243.015 466.582 242.724 466.818C238.864 470.068 233.338 467.411 232.647 462.673C232.532 461.812 232.489 460.942 232.517 460.073C232.639 456.058 234.2 451.313 238.043 450.159C238.843 449.911 239.683 449.824 240.516 449.902C241.349 449.979 242.159 450.221 242.898 450.612C243.638 451.003 244.294 451.536 244.827 452.18C245.36 452.825 245.762 453.568 246.007 454.368C246.305 455.325 246.377 456.337 246.219 457.326Z" fill="#EEC1BB"/>
<path d="M239.06 457.96C239.06 458.342 238.791 458.626 238.548 458.602C238.304 458.577 238.125 458.252 238.158 457.87C238.19 457.488 238.426 457.212 238.67 457.236C238.913 457.261 239.092 457.578 239.06 457.96Z" fill="#263238"/>
<path d="M234.785 457.562C234.785 457.935 234.516 458.228 234.273 458.204C234.029 458.179 233.858 457.846 233.891 457.472C233.923 457.098 234.159 456.806 234.403 456.83C234.646 456.855 234.817 457.204 234.785 457.562Z" fill="#263238"/>
<path d="M236.125 457.87C235.566 458.984 234.855 460.015 234.012 460.934C234.256 461.142 234.542 461.296 234.85 461.385C235.159 461.473 235.483 461.494 235.8 461.446L236.125 457.87Z" fill="#D4827D"/>
<path d="M240.725 456.343C240.689 456.361 240.648 456.37 240.607 456.37C240.567 456.37 240.526 456.361 240.49 456.343C240.268 456.175 240.009 456.062 239.735 456.012C239.461 455.963 239.18 455.979 238.913 456.058C238.858 456.08 238.797 456.079 238.742 456.057C238.687 456.034 238.644 455.991 238.62 455.936C238.599 455.882 238.6 455.822 238.623 455.769C238.646 455.716 238.689 455.674 238.742 455.652C239.079 455.543 239.437 455.517 239.786 455.575C240.136 455.633 240.466 455.774 240.75 455.985C240.774 456.001 240.795 456.022 240.811 456.047C240.827 456.071 240.838 456.099 240.843 456.128C240.848 456.156 240.848 456.186 240.842 456.214C240.835 456.243 240.823 456.27 240.806 456.294C240.783 456.316 240.755 456.332 240.725 456.343Z" fill="#263238"/>
<path d="M236.792 463.453C237.337 463.396 237.861 463.21 238.32 462.91C238.78 462.611 239.161 462.206 239.433 461.73C239.445 461.701 239.446 461.668 239.435 461.638C239.425 461.608 239.404 461.583 239.376 461.567C239.363 461.56 239.348 461.556 239.333 461.555C239.318 461.553 239.303 461.555 239.289 461.559C239.274 461.564 239.261 461.571 239.249 461.581C239.238 461.591 239.228 461.603 239.222 461.616C238.971 462.059 238.62 462.437 238.196 462.719C237.773 463.001 237.289 463.18 236.784 463.241C236.768 463.241 236.753 463.244 236.739 463.251C236.725 463.257 236.713 463.266 236.703 463.278C236.693 463.289 236.685 463.303 236.681 463.318C236.677 463.333 236.676 463.348 236.678 463.363C236.679 463.378 236.683 463.393 236.69 463.406C236.696 463.42 236.706 463.432 236.717 463.441C236.728 463.451 236.741 463.459 236.756 463.463C236.77 463.468 236.785 463.47 236.8 463.469L236.792 463.453Z" fill="#263238"/>
<path d="M233.151 454.904C233.115 454.878 233.09 454.841 233.078 454.798C233.073 454.77 233.075 454.741 233.082 454.713C233.089 454.685 233.101 454.659 233.119 454.636C233.136 454.613 233.158 454.594 233.183 454.58C233.208 454.566 233.236 454.557 233.265 454.555C233.616 454.507 233.973 454.544 234.307 454.663C234.64 454.782 234.941 454.979 235.183 455.237C235.223 455.278 235.246 455.334 235.246 455.392C235.246 455.449 235.223 455.505 235.183 455.546C235.142 455.587 235.086 455.609 235.028 455.609C234.97 455.609 234.915 455.587 234.874 455.546C234.677 455.346 234.437 455.196 234.171 455.107C233.906 455.018 233.623 454.993 233.346 455.034C233.305 455.03 233.266 455.017 233.232 454.994C233.198 454.971 233.17 454.94 233.151 454.904Z" fill="#263238"/>
<path d="M235.314 451.702C235.703 451.645 236.1 451.679 236.474 451.802C236.848 451.924 237.188 452.132 237.467 452.409C238.92 452.316 240.377 452.351 241.823 452.515C242.301 452.646 242.732 452.908 243.068 453.271C243.404 453.634 243.632 454.085 243.725 454.571C243.839 454.928 243.14 455.603 243.14 455.603C243.14 455.603 243.197 459.886 243.221 461.072L244.895 464.323C246.91 461.309 248.036 457.788 248.146 454.165C248.349 448.07 236.33 448.078 236.33 448.078L235.314 451.702Z" fill="#263238"/>
<path d="M247.828 462.632C247.475 463.094 247.034 463.481 246.531 463.771C246.027 464.062 245.471 464.249 244.894 464.322C243.35 464.517 242.814 463.079 243.431 461.738C243.992 460.56 245.471 458.991 246.926 459.43C247.243 459.526 247.531 459.701 247.763 459.938C247.994 460.174 248.163 460.465 248.253 460.784C248.343 461.103 248.351 461.44 248.277 461.762C248.202 462.085 248.048 462.384 247.828 462.632Z" fill="#EEC1BB"/>
<path d="M236.419 487.938L228.447 488.848C228.447 488.848 223.806 485.963 222.758 485.907C221.71 485.85 221.799 490.669 223.026 491.595C224.253 492.521 227.26 492.684 227.691 492.66C228.122 492.635 228.829 491.749 228.829 491.749L236.955 490.831L236.419 487.938Z" fill="#EEC1BB"/>
<path d="M252.533 489.417C250.428 490.172 235.208 493.147 234.387 491.977L234.168 491.668L233.932 491.286C233.16 490.018 232.388 488.149 233.753 487.019C235.378 485.654 247.812 484.183 248.641 483.135C249.47 482.087 254.467 469.084 259.116 470.945C259.207 470.984 259.295 471.033 259.376 471.092C259.726 471.303 259.991 471.631 260.123 472.018C261.732 476.081 254.41 488.758 252.533 489.417Z" fill="#316FCC"/>
<path d="M260.123 472.018C259.894 473.353 259.551 474.667 259.099 475.943C257.563 480.47 254.288 487.32 251.785 488.482C248.583 489.953 235.93 491.432 234.135 491.636H233.939L233.899 491.237L233.85 490.839C233.996 490.839 248.193 489.214 251.452 487.727C253.402 486.833 256.563 480.77 258.302 475.659C258.884 474.194 259.235 472.648 259.343 471.076C259.708 471.285 259.986 471.62 260.123 472.018Z" fill="white"/>
<path d="M231.071 487.792L233.501 487.361L234.728 491.993L231.884 492.326L231.071 487.792Z" fill="#316FCC"/>
<path opacity="0.2" d="M231.071 487.792L233.501 487.361L234.728 491.993L231.884 492.326L231.071 487.792Z" fill="black"/>
<path d="M301.998 568.837L306.037 562.36L304.29 561.23L299.983 567.886L301.998 568.837Z" fill="#316FCC"/>
<path opacity="0.2" d="M301.998 568.837L306.037 562.36L304.29 561.23L299.983 567.886L301.998 568.837Z" fill="black"/>
<path d="M246.592 559.385L252.257 554.274L250.891 552.705L244.918 557.914L246.592 559.385Z" fill="#316FCC"/>
<path opacity="0.2" d="M246.592 559.385L252.257 554.274L250.891 552.705L244.918 557.914L246.592 559.385Z" fill="black"/>
<path opacity="0.2" d="M257.71 521.988C257.466 522.061 247.56 525.238 240.368 528.123C241.075 520.314 252.558 515.511 252.558 515.511L257.71 521.988Z" fill="black"/>
<path d="M158.973 413.224C157.047 422.545 143.866 437.01 123.615 423.187C118.674 419.815 116.651 415.825 116.439 411.729C115.781 399.426 131.294 386.131 132.245 385.327H132.294C132.294 385.327 131.644 379.508 127.15 378.825C126.748 378.777 126.355 378.676 125.98 378.525C123.542 377.452 127.15 374.648 127.15 374.648C130.043 372.397 132.936 376.843 134.862 376.387C136.788 375.932 139.047 372.722 140.331 374.006C141.615 375.29 140.006 378.825 142.899 378.825C145.792 378.825 149.254 377.541 150.213 378.825C151.172 380.109 150.213 384.514 150.213 384.514C150.213 384.514 143.183 383.043 141.274 385.261C141.274 385.261 157.876 401.019 159.022 410.795C159.136 411.602 159.119 412.422 158.973 413.224Z" fill="#316FCC"/>
<path d="M143.069 410.632L143.475 413.622L140.794 413.517L140.46 410.559C137.332 410.274 134.284 409.332 132.61 408.121L133.886 405.74C135.801 406.881 137.942 407.591 140.16 407.82L139.64 403.139C136.324 402.424 132.814 401.514 132.7 398.613C132.618 396.597 134.544 394.988 138.713 394.858L138.486 392.811L140.639 392.892L140.916 394.899C142.873 395.032 144.795 395.488 146.604 396.248L145.848 398.174C144.359 397.548 142.788 397.135 141.184 396.947L141.744 401.059C145.044 401.758 148.733 402.684 149.391 405.821C149.911 408.291 148.002 410.42 143.069 410.632ZM139.347 400.506L138.941 396.906C137.007 397.053 136.243 397.719 136.308 398.605C136.373 399.49 137.649 400.124 139.347 400.506ZM145.564 405.862C145.369 404.724 143.939 404.147 142.118 403.692L142.695 407.853C144.914 407.706 145.734 406.918 145.564 405.894V405.862Z" fill="white"/>
<path opacity="0.2" d="M150.254 384.538C150.254 384.538 143.225 383.067 141.315 385.285C138.739 384.774 133.92 383.847 132.311 385.285C132.311 385.285 131.661 379.467 127.167 378.784C126.765 378.736 126.372 378.635 125.997 378.484C126.353 377.911 126.87 377.456 127.484 377.175C130.734 375.729 132.628 381.035 134.879 380.231C137.13 379.426 138.739 376.858 140.185 378.606C141.632 380.353 147.962 378.354 150.254 384.538Z" fill="black"/>
<path opacity="0.2" d="M158.973 413.224C157.047 422.545 143.866 437.01 123.615 423.187C118.674 419.815 116.65 415.825 116.439 411.729C117.65 413.029 119.088 413.671 122.168 413.622C127.467 413.541 138.478 408.088 143.183 411.461C147.888 414.833 155.933 414.403 159.046 410.819C159.149 411.619 159.124 412.431 158.973 413.224Z" fill="black"/>
<path d="M131.669 385.83C131.669 385.83 129.564 384.611 133.578 383.482C137.593 382.352 144.143 384.538 142.696 386.667C141.041 385.703 139.189 385.126 137.279 384.981C135.368 384.836 133.45 385.126 131.669 385.83Z" fill="#263238"/>
<path d="M138.112 384.254C138.112 384.254 138.925 390.519 141.054 389.552C143.183 388.585 139.583 385.327 139.583 385.327C139.583 385.327 144.589 388.415 145.069 386.261C145.548 384.108 139.12 383.002 138.112 384.254ZM140.688 388.512C140.25 388.829 139.526 386.025 139.526 386.025C139.648 386.099 141.135 388.146 140.688 388.472V388.512ZM143.85 385.936C143.541 386.424 141.054 384.815 141.054 384.815C141.054 384.815 144.158 385.416 143.85 385.879V385.936Z" fill="#263238"/>
<path d="M140.161 385.066C140.161 385.066 144.639 387.829 147.012 387.984C147.068 388.103 147.097 388.233 147.097 388.365C147.097 388.498 147.068 388.628 147.012 388.747C147.012 388.747 141.648 387.122 140.51 385.789C140.51 385.789 143.103 389.958 145.126 388.747C145.349 388.906 145.516 389.131 145.606 389.389C145.606 389.389 144.866 389.991 143.29 389.389C141.713 388.788 139.608 385.326 139.608 385.326L140.161 385.066Z" fill="#263238"/>
<path d="M62.5293 612.801L70.8914 537.957L77.8638 527.279L82.9916 504.395C82.9916 504.395 90.3054 481.747 90.2322 479.788C90.1591 477.83 94.8155 455.953 94.8155 455.953L99.6914 432.078L106.396 416.638L127.069 415.232L137.292 421.489L167.945 423.578L183.231 441.05L188.221 457.749L200.638 466.883L205.668 481.925L219.727 487.874L226.187 492.376L218.873 530.993L255.84 566.708L307.671 578.418L339.494 596.134L350.359 612.801H62.5293Z" fill="#316FCC"/>
<path opacity="0.6" d="M350.353 612.801H62.5312L70.8933 537.957L77.8658 527.279L82.9936 504.395C82.9936 504.395 90.3073 481.746 90.2342 479.788C90.1611 477.829 94.8175 455.953 94.8175 455.953L98.5069 437.742L99.6527 432.053L106.357 416.613L127.031 415.207L137.254 421.465L167.906 423.553L183.233 441.049L188.222 457.749L200.64 466.883L205.67 481.925L219.729 487.874L226.189 492.376L218.875 530.992L255.842 566.708L291.046 574.664L307.673 578.426L319.326 584.927L339.496 596.15L350.353 612.801Z" fill="white"/>
<path opacity="0.2" d="M350.35 612.801H62.5288L70.8909 537.957L68.9568 603.594L77.8959 607.657L88.7121 576.476V598.417L102.397 603.635L113.652 591.079L130.287 572.632L136.723 535.251L134.578 525.499L154.292 479.91V541.362L165.442 554.559V573.599L167.156 594.029L179.98 592.802L183.84 561.41L192.714 556.079L202.506 539.59L204.944 582.896L212.315 596.166L243.309 572.193L255.864 566.741L291.068 574.696C281.251 577.053 261.39 581.921 261.236 582.896C261.025 584.18 262.812 590.584 265.567 594.021C268.322 597.458 282.08 604.699 282.08 604.699L300.69 603.626L308.735 592.835L319.348 584.944L339.518 596.166H313.513V603.626L350.35 612.801Z" fill="black"/>
<path opacity="0.2" d="M127.028 415.215L117.829 439.375L116.139 471.434L108.395 505.565L123.835 466.785L133.66 452.02C133.66 452.02 128.093 445.169 128.516 443.503C128.938 441.837 138.804 423.35 138.804 423.35L127.028 415.215Z" fill="black"/>
<path opacity="0.2" d="M90.3121 557.086C90.3113 557.265 90.2839 557.443 90.2308 557.614C90.1739 557.753 90.2064 557.549 90.3121 557.086Z" fill="black"/>
<path opacity="0.2" d="M92.8001 483.623L98.4886 490.709V527.278C98.4886 527.278 91.313 552.909 90.2972 557.078C90.5329 553.535 88.6719 535.185 88.6719 535.185L77.8638 527.278L82.9915 504.394C82.9915 504.394 90.3053 481.746 90.2322 479.788C90.159 477.829 94.8155 455.953 94.8155 455.953L98.5049 437.741L92.8001 483.623Z" fill="black"/>
<path opacity="0.2" d="M183.231 441.049L174.658 472.222L170.123 476.894C170.123 476.894 164.979 526.717 164.979 525.003C164.979 523.288 174.666 481.77 174.666 481.77L183.231 473.587L188.221 457.748L183.231 441.049Z" fill="black"/>
<path opacity="0.2" d="M205.676 481.925L196.338 510.367V521.793L201.003 511.513C201.003 511.513 209.186 506.637 209.373 505.516C209.56 504.395 219.734 487.841 219.734 487.841L205.676 481.925Z" fill="black"/>
<path d="M313.936 612.801H342.947C342.947 612.801 337.169 603.96 334.707 605.081C331.505 606.544 329.124 598.531 325.581 600.433C324.33 601.099 324.939 603.245 324.151 604.106C322.851 605.528 321.201 605.252 319.625 606.032C316.553 607.568 315.456 609.599 313.936 612.801Z" fill="#263238"/>
<path d="M339.777 610.339C339.777 610.339 337.868 599.287 339.184 597.661C340.501 596.036 340.728 603.691 340.728 603.691C340.728 603.691 345.149 587.731 347.977 587.642C350.805 587.552 344.621 601.497 344.621 601.497C344.621 601.497 356.705 581.742 360.223 583.578C363.742 585.415 347.571 602.927 347.571 602.927C347.571 602.927 356.412 595.321 358.354 597.474C360.297 599.628 348.546 606.186 348.546 606.186C348.546 606.186 353.73 605.024 353.722 606.747C353.714 608.47 344.946 611.314 339.777 610.339Z" fill="#316FCC"/>
<path opacity="0.2" d="M339.777 610.339C339.777 610.339 337.868 599.287 339.184 597.661C340.501 596.036 340.728 603.691 340.728 603.691C340.728 603.691 345.149 587.731 347.977 587.642C350.805 587.552 344.621 601.497 344.621 601.497C344.621 601.497 356.705 581.742 360.223 583.578C363.742 585.415 347.571 602.927 347.571 602.927C347.571 602.927 356.412 595.321 358.354 597.474C360.297 599.628 348.546 606.186 348.546 606.186C348.546 606.186 353.73 605.024 353.722 606.747C353.714 608.47 344.946 611.314 339.777 610.339Z" fill="white"/>
<path d="M338.031 608.754C338.031 608.754 328.954 607.129 328.068 605.634C327.182 604.139 333.172 606.146 333.172 606.146C333.172 606.146 322.071 598.214 322.802 596.004C323.534 593.794 332.554 602.505 332.554 602.505C332.554 602.505 320.697 587.577 323.111 585.383C325.525 583.189 334.488 600.628 334.488 600.628C334.488 600.628 331.099 591.689 333.31 590.746C335.52 589.804 337.275 600.799 337.275 600.799C337.275 600.799 337.844 596.459 339.177 596.947C340.51 597.434 340.258 605.016 338.031 608.754Z" fill="#316FCC"/>
<path opacity="0.2" d="M338.031 608.754C338.031 608.754 328.954 607.129 328.068 605.634C327.182 604.139 333.172 606.146 333.172 606.146C333.172 606.146 322.071 598.214 322.802 596.004C323.534 593.794 332.554 602.505 332.554 602.505C332.554 602.505 320.697 587.577 323.111 585.383C325.525 583.189 334.488 600.628 334.488 600.628C334.488 600.628 331.099 591.689 333.31 590.746C335.52 589.804 337.275 600.799 337.275 600.799C337.275 600.799 337.844 596.459 339.177 596.947C340.51 597.434 340.258 605.016 338.031 608.754Z" fill="white"/>
<path d="M337.348 607.551C337.348 607.551 328.58 598.758 328.734 596.459C328.889 594.159 333.984 600.928 333.984 600.928C333.984 600.928 327.8 583.66 330.303 581.774C332.806 579.889 336.097 596.459 336.097 596.459C336.097 596.459 334.472 570.869 338.795 570.292C343.118 569.715 339.681 595.874 339.681 595.874C339.681 595.874 342.834 583.351 345.971 584.05C349.107 584.749 342.647 598.206 342.647 598.206C342.647 598.206 346.596 593.842 347.693 595.402C348.79 596.963 342.679 605.121 337.348 607.551Z" fill="#316FCC"/>
<path opacity="0.4" d="M337.348 607.551C337.348 607.551 328.58 598.758 328.734 596.459C328.889 594.159 333.984 600.928 333.984 600.928C333.984 600.928 327.8 583.66 330.303 581.774C332.806 579.889 336.097 596.459 336.097 596.459C336.097 596.459 334.472 570.869 338.795 570.292C343.118 569.715 339.681 595.874 339.681 595.874C339.681 595.874 342.834 583.351 345.971 584.05C349.107 584.749 342.647 598.206 342.647 598.206C342.647 598.206 346.596 593.842 347.693 595.402C348.79 596.963 342.679 605.121 337.348 607.551Z" fill="white"/>
<path d="M326.719 612.801H349.822C349.822 612.801 345.214 605.755 343.256 606.649C340.704 607.811 338.811 601.432 335.983 602.944C334.983 603.48 335.471 605.186 334.845 605.869C333.805 607.007 332.489 606.787 331.237 607.413C328.799 608.632 327.93 610.249 326.719 612.801Z" fill="#263238"/>
<path opacity="0.2" d="M326.719 612.801H349.822C349.822 612.801 345.214 605.755 343.256 606.649C340.704 607.811 338.811 601.432 335.983 602.944C334.983 603.48 335.471 605.186 334.845 605.869C333.805 607.007 332.489 606.787 331.237 607.413C328.799 608.632 327.93 610.249 326.719 612.801Z" fill="white"/>
<path d="M92.6125 596.621C92.6125 596.621 83.9416 564.839 76.896 554.77C69.8504 544.702 81.1461 577.524 81.1461 577.524C81.1461 577.524 71.2807 556.599 68.1845 557.265C65.0883 557.931 78.3994 580.515 78.3994 580.515C78.3994 580.515 68.2739 562.433 63.845 565.383C59.4161 568.333 76.7741 586.926 76.7741 586.926C76.7741 586.926 61.1633 575.224 59.6193 578.475C58.0752 581.726 74.7019 592.127 74.7019 592.127C74.7019 592.127 58.896 588.917 57.2057 594.5C55.5154 600.083 72.9547 599.238 72.9547 599.238C72.9547 599.238 64.9014 598.88 63.3737 604.699C61.8459 610.517 84.5105 608.405 92.6125 596.621Z" fill="#316FCC"/>
<path opacity="0.2" d="M92.6125 596.621C92.6125 596.621 83.9416 564.839 76.896 554.77C69.8504 544.702 81.1461 577.524 81.1461 577.524C81.1461 577.524 71.2807 556.599 68.1845 557.265C65.0883 557.931 78.3994 580.515 78.3994 580.515C78.3994 580.515 68.2739 562.433 63.845 565.383C59.4161 568.333 76.7741 586.926 76.7741 586.926C76.7741 586.926 61.1633 575.224 59.6193 578.475C58.0752 581.726 74.7019 592.127 74.7019 592.127C74.7019 592.127 58.896 588.917 57.2057 594.5C55.5154 600.083 72.9547 599.238 72.9547 599.238C72.9547 599.238 64.9014 598.88 63.3737 604.699C61.8459 610.517 84.5105 608.405 92.6125 596.621Z" fill="white"/>
<path d="M97.0424 605.812C97.0424 605.812 85.2834 583.18 87.6645 579.214C90.0455 575.249 95.0676 588.064 95.0676 588.064C95.0676 588.064 85.9986 559.069 89.2735 555.875C92.5485 552.682 98.5539 580.848 98.5539 580.848C98.5539 580.848 95.3683 547.854 98.5539 546.091C101.739 544.328 103.275 575.956 103.275 575.956C103.275 575.956 105.445 542.499 109.443 543.003C113.441 543.507 109.443 572.729 109.443 572.729C109.443 572.729 118.382 550.487 122.381 551.381C126.379 552.275 115.944 574.412 115.944 574.412C115.944 574.412 126.509 561.052 129.589 564.189C132.669 567.325 120.121 581.953 120.121 581.953C120.121 581.953 130.864 575.224 133.66 578.589C136.455 581.953 122.405 589.153 122.405 589.153C122.405 589.153 133.847 592.119 133.05 594.971C132.254 597.824 122.405 597.409 122.405 597.409C122.405 597.409 118.114 617.693 97.0424 605.812Z" fill="#316FCC"/>
<path opacity="0.2" d="M97.0424 605.812C97.0424 605.812 85.2834 583.18 87.6645 579.214C90.0455 575.249 95.0676 588.064 95.0676 588.064C95.0676 588.064 85.9986 559.069 89.2735 555.875C92.5485 552.682 98.5539 580.848 98.5539 580.848C98.5539 580.848 95.3683 547.854 98.5539 546.091C101.739 544.328 103.275 575.956 103.275 575.956C103.275 575.956 105.445 542.499 109.443 543.003C113.441 543.507 109.443 572.729 109.443 572.729C109.443 572.729 118.382 550.487 122.381 551.381C126.379 552.275 115.944 574.412 115.944 574.412C115.944 574.412 126.509 561.052 129.589 564.189C132.669 567.325 120.121 581.953 120.121 581.953C120.121 581.953 130.864 575.224 133.66 578.589C136.455 581.953 122.405 589.153 122.405 589.153C122.405 589.153 133.847 592.119 133.05 594.971C132.254 597.824 122.405 597.409 122.405 597.409C122.405 597.409 118.114 617.693 97.0424 605.812Z" fill="black"/>
<path d="M71.7608 551.722C71.7592 552.077 71.8633 552.425 72.0599 552.72C72.2564 553.016 72.5365 553.246 72.8645 553.382C73.1925 553.518 73.5534 553.553 73.9014 553.483C74.2494 553.413 74.5687 553.241 74.8185 552.989C75.0684 552.737 75.2375 552.416 75.3044 552.067C75.3712 551.719 75.3328 551.358 75.194 551.031C75.0552 550.705 74.8222 550.427 74.5248 550.233C74.2275 550.039 73.8791 549.938 73.5242 549.943C73.055 549.947 72.6065 550.136 72.2763 550.47C71.946 550.803 71.7607 551.253 71.7608 551.722Z" fill="#316FCC"/>
<path d="M93.9373 598.726C93.8429 598.724 93.752 598.69 93.6796 598.63C93.6071 598.569 93.5576 598.485 93.5391 598.393C93.4741 598.035 86.9079 562.271 71.3052 546.928C71.2381 546.851 71.2026 546.751 71.2058 546.649C71.209 546.547 71.2507 546.449 71.3225 546.376C71.3944 546.304 71.4911 546.26 71.5934 546.256C71.6956 546.251 71.7959 546.285 71.8741 546.351C87.6637 561.873 94.2786 597.889 94.3436 598.247C94.3541 598.3 94.3538 598.355 94.3426 598.408C94.3315 598.462 94.3097 598.512 94.2786 598.557C94.2475 598.602 94.2078 598.64 94.1617 598.669C94.1156 598.698 94.0642 598.717 94.0104 598.726H93.9373Z" fill="#316FCC"/>
<path d="M69.5015 546.644C69.5015 547.057 69.624 547.461 69.8534 547.804C70.0829 548.148 70.4091 548.415 70.7907 548.573C71.1723 548.731 71.5923 548.773 71.9974 548.692C72.4025 548.612 72.7747 548.413 73.0667 548.121C73.3588 547.829 73.5577 547.456 73.6383 547.051C73.7189 546.646 73.6775 546.226 73.5195 545.845C73.3614 545.463 73.0937 545.137 72.7503 544.907C72.4068 544.678 72.003 544.555 71.59 544.555C71.0361 544.555 70.5048 544.775 70.1132 545.167C69.7215 545.559 69.5015 546.09 69.5015 546.644Z" fill="#316FCC"/>
<path d="M76.2061 563.466C76.2061 563.819 76.3109 564.165 76.5074 564.459C76.7038 564.753 76.983 564.982 77.3097 565.117C77.6364 565.253 77.9959 565.288 78.3427 565.219C78.6895 565.15 79.008 564.98 79.2581 564.73C79.5081 564.48 79.6784 564.161 79.7473 563.814C79.8163 563.468 79.7809 563.108 79.6456 562.781C79.5103 562.455 79.2811 562.176 78.9871 561.979C78.6931 561.783 78.3475 561.678 77.9939 561.678C77.7588 561.677 77.5258 561.722 77.3084 561.812C77.0911 561.901 76.8935 562.033 76.7273 562.199C76.5611 562.365 76.4294 562.563 76.34 562.78C76.2505 562.998 76.205 563.23 76.2061 563.466Z" fill="#316FCC"/>
<path d="M84.0884 558.289C84.09 558.64 84.1957 558.984 84.3923 559.275C84.5888 559.567 84.8673 559.794 85.1926 559.927C85.518 560.061 85.8755 560.095 86.2202 560.025C86.5649 559.956 86.8813 559.785 87.1294 559.536C87.3774 559.287 87.5461 558.97 87.6141 558.625C87.6822 558.28 87.6464 557.922 87.5115 557.598C87.3766 557.273 87.1485 556.996 86.856 556.8C86.5635 556.605 86.2197 556.501 85.8681 556.501C85.6337 556.501 85.4016 556.547 85.1851 556.637C84.9687 556.727 84.7721 556.859 84.6068 557.025C84.4414 557.191 84.3105 557.388 84.2215 557.605C84.1326 557.822 84.0873 558.054 84.0884 558.289Z" fill="#316FCC"/>
<path d="M80.3666 571.706C81.3495 571.706 82.1463 570.909 82.1463 569.926C82.1463 568.943 81.3495 568.146 80.3666 568.146C79.3837 568.146 78.5869 568.943 78.5869 569.926C78.5869 570.909 79.3837 571.706 80.3666 571.706Z" fill="#316FCC"/>
<path d="M86.729 567.374C86.729 567.728 86.8341 568.074 87.0309 568.368C87.2277 568.662 87.5074 568.891 87.8346 569.026C88.1617 569.162 88.5216 569.196 88.8686 569.127C89.2156 569.057 89.5342 568.886 89.7839 568.635C90.0336 568.384 90.2032 568.065 90.2713 567.718C90.3393 567.37 90.3028 567.011 90.1662 566.684C90.0297 566.358 89.7992 566.079 89.5042 565.884C89.2091 565.688 88.8626 565.585 88.5087 565.586C88.2743 565.586 88.0422 565.632 87.8258 565.722C87.6093 565.812 87.4128 565.944 87.2474 566.11C87.082 566.276 86.9511 566.474 86.8622 566.69C86.7732 566.907 86.728 567.14 86.729 567.374Z" fill="#316FCC"/>
<path d="M77.855 548.732C77.8566 549.084 77.9623 549.427 78.1589 549.719C78.3554 550.01 78.6339 550.237 78.9592 550.371C79.2846 550.504 79.6421 550.538 79.9868 550.468C80.3315 550.399 80.6479 550.229 80.896 549.98C81.144 549.73 81.3127 549.413 81.3807 549.068C81.4488 548.723 81.413 548.366 81.2781 548.041C81.1432 547.716 80.9151 547.439 80.6226 547.244C80.3301 547.048 79.9863 546.944 79.6347 546.944C79.4003 546.944 79.1682 546.991 78.9517 547.081C78.7353 547.171 78.5387 547.302 78.3734 547.468C78.208 547.635 78.0771 547.832 77.9881 548.049C77.8992 548.265 77.8539 548.498 77.855 548.732Z" fill="#316FCC"/>
<path d="M80.0251 557.874L71.4924 555.721C71.4409 555.709 71.3924 555.686 71.3497 555.655C71.307 555.624 71.271 555.584 71.2438 555.539C71.2165 555.493 71.1986 555.443 71.1911 555.39C71.1835 555.338 71.1865 555.285 71.1999 555.233C71.2268 555.13 71.2925 555.041 71.3833 554.985C71.4742 554.929 71.5831 554.91 71.6874 554.933L79.2288 556.802V548.675C79.2288 548.568 79.2716 548.464 79.3478 548.388C79.424 548.312 79.5273 548.269 79.6351 548.269C79.7428 548.269 79.8462 548.312 79.9224 548.388C79.9986 548.464 80.0414 548.568 80.0414 548.675L80.0251 557.874Z" fill="#316FCC"/>
<path d="M83.8607 565.546L77.9041 564.213C77.7963 564.19 77.702 564.126 77.6418 564.034C77.5816 563.941 77.5605 563.829 77.5831 563.721C77.6057 563.614 77.6702 563.519 77.7624 563.459C77.8546 563.399 77.967 563.378 78.0747 563.4L83.3244 564.579L85.5185 558.143C85.5305 558.086 85.5542 558.033 85.5881 557.987C85.622 557.941 85.6653 557.902 85.7153 557.874C85.7652 557.845 85.8206 557.828 85.8777 557.823C85.9349 557.817 85.9925 557.824 86.0469 557.842C86.1012 557.861 86.1511 557.891 86.1931 557.93C86.2351 557.969 86.2683 558.017 86.2905 558.07C86.3128 558.123 86.3236 558.18 86.3222 558.237C86.3208 558.294 86.3072 558.351 86.2824 558.403L83.8607 565.546Z" fill="#316FCC"/>
<path d="M86.8993 573.014L80.2113 570.3C80.1571 570.284 80.107 570.256 80.0641 570.219C80.0212 570.182 79.9866 570.136 79.9623 570.085C79.9381 570.034 79.9249 569.978 79.9235 569.921C79.9221 569.865 79.9325 569.809 79.9541 569.756C79.9757 569.704 80.0081 569.657 80.049 569.617C80.09 569.578 80.1387 569.548 80.192 569.529C80.2453 569.51 80.302 569.502 80.3585 569.506C80.415 569.51 80.47 569.526 80.5201 569.552L86.4199 571.99L88.1264 567.277C88.1631 567.176 88.2385 567.093 88.336 567.047C88.4335 567.002 88.5452 566.997 88.6465 567.033C88.6973 567.05 88.7441 567.078 88.7841 567.113C88.8241 567.149 88.8564 567.193 88.8792 567.241C88.902 567.29 88.9147 567.343 88.9166 567.396C88.9185 567.45 88.9096 567.503 88.8903 567.553L86.8993 573.014Z" fill="#316FCC"/>
<path d="M115.262 608.128C115.178 608.128 115.096 608.103 115.026 608.055C114.94 607.99 114.883 607.895 114.866 607.789C114.85 607.683 114.875 607.574 114.937 607.486C123.356 595.866 133.765 583.18 147.174 577.199C147.223 577.178 147.276 577.166 147.33 577.165C147.383 577.164 147.436 577.174 147.486 577.193C147.536 577.213 147.582 577.242 147.62 577.28C147.658 577.317 147.689 577.361 147.71 577.411C147.752 577.509 147.754 577.62 147.717 577.72C147.679 577.819 147.604 577.901 147.507 577.947C134.277 583.839 123.941 596.426 115.595 607.958C115.558 608.011 115.508 608.055 115.45 608.085C115.391 608.114 115.327 608.129 115.262 608.128Z" fill="#316FCC"/>
<path d="M149.296 578.304C149.151 578.691 148.895 579.026 148.56 579.267C148.224 579.508 147.825 579.644 147.413 579.659C147 579.673 146.592 579.565 146.241 579.348C145.89 579.13 145.611 578.814 145.44 578.438C145.268 578.063 145.212 577.645 145.278 577.237C145.345 576.829 145.53 576.451 145.811 576.148C146.093 575.846 146.457 575.634 146.859 575.539C147.261 575.444 147.682 575.47 148.069 575.614C148.587 575.809 149.007 576.202 149.237 576.706C149.467 577.21 149.488 577.784 149.296 578.304Z" fill="#316FCC"/>
<path d="M137.121 591.713C136.996 592.041 136.776 592.326 136.49 592.529C136.204 592.733 135.863 592.848 135.512 592.859C135.161 592.87 134.814 592.776 134.516 592.59C134.217 592.404 133.981 592.134 133.836 591.813C133.691 591.493 133.644 591.137 133.701 590.79C133.759 590.443 133.917 590.121 134.158 589.864C134.398 589.608 134.708 589.428 135.051 589.347C135.393 589.267 135.751 589.29 136.081 589.413C136.3 589.495 136.502 589.62 136.673 589.78C136.844 589.94 136.982 590.133 137.079 590.347C137.176 590.56 137.229 590.791 137.236 591.025C137.243 591.26 137.204 591.494 137.121 591.713Z" fill="#316FCC"/>
<path d="M131.531 584.09C131.365 584.533 131.03 584.892 130.599 585.088C130.169 585.284 129.678 585.3 129.235 585.134C128.792 584.969 128.434 584.633 128.238 584.203C128.042 583.772 128.025 583.282 128.191 582.839C128.357 582.396 128.692 582.037 129.123 581.841C129.553 581.645 130.044 581.629 130.487 581.795C130.93 581.96 131.288 582.296 131.484 582.726C131.68 583.157 131.697 583.647 131.531 584.09Z" fill="#316FCC"/>
<path d="M132.628 596.93C132.547 597.149 132.423 597.351 132.263 597.522C132.104 597.694 131.913 597.832 131.7 597.93C131.487 598.027 131.257 598.081 131.023 598.09C130.789 598.098 130.556 598.06 130.336 597.978C130.117 597.896 129.916 597.772 129.745 597.612C129.574 597.452 129.436 597.26 129.339 597.047C129.143 596.616 129.126 596.125 129.292 595.683C129.458 595.24 129.793 594.881 130.224 594.685C130.654 594.489 131.145 594.472 131.588 594.638C132.03 594.804 132.387 595.139 132.582 595.569C132.778 595.998 132.794 596.488 132.628 596.93Z" fill="#316FCC"/>
<path d="M125.899 591.68C125.776 592.01 125.558 592.295 125.273 592.501C124.987 592.707 124.647 592.823 124.296 592.836C123.944 592.848 123.597 592.756 123.297 592.572C122.998 592.387 122.76 592.118 122.614 591.798C122.468 591.478 122.419 591.122 122.475 590.774C122.531 590.427 122.689 590.104 122.928 589.846C123.168 589.588 123.478 589.407 123.82 589.326C124.163 589.244 124.521 589.266 124.851 589.389C125.071 589.47 125.272 589.594 125.443 589.753C125.615 589.912 125.753 590.104 125.851 590.317C125.948 590.53 126.003 590.76 126.011 590.994C126.019 591.228 125.981 591.461 125.899 591.68Z" fill="#316FCC"/>
<path d="M140.746 577.337C140.622 577.666 140.403 577.95 140.117 578.155C139.831 578.359 139.492 578.474 139.14 578.486C138.789 578.497 138.443 578.405 138.144 578.22C137.845 578.034 137.608 577.765 137.463 577.445C137.317 577.126 137.269 576.77 137.325 576.423C137.381 576.076 137.539 575.754 137.778 575.496C138.017 575.239 138.327 575.058 138.668 574.976C139.01 574.895 139.368 574.916 139.698 575.038C139.918 575.119 140.121 575.243 140.293 575.403C140.465 575.563 140.604 575.755 140.701 575.969C140.799 576.183 140.853 576.414 140.861 576.649C140.868 576.884 140.83 577.118 140.746 577.337Z" fill="#316FCC"/>
<path d="M144.281 586.146H144.224L135.48 585.131L138.69 576.565C138.704 576.51 138.729 576.458 138.765 576.413C138.8 576.368 138.845 576.331 138.896 576.305C138.946 576.278 139.002 576.263 139.059 576.259C139.116 576.256 139.173 576.264 139.227 576.285C139.281 576.305 139.329 576.336 139.37 576.376C139.41 576.416 139.442 576.465 139.463 576.518C139.483 576.572 139.493 576.629 139.49 576.686C139.487 576.743 139.472 576.799 139.446 576.85L136.61 584.448L144.322 585.342C144.375 585.345 144.427 585.359 144.475 585.382C144.523 585.405 144.566 585.438 144.602 585.478C144.637 585.518 144.664 585.565 144.682 585.615C144.699 585.666 144.707 585.719 144.703 585.773C144.7 585.826 144.687 585.878 144.663 585.926C144.64 585.974 144.607 586.017 144.567 586.053C144.527 586.088 144.481 586.115 144.43 586.133C144.38 586.15 144.326 586.158 144.273 586.155L144.281 586.146Z" fill="#316FCC"/>
<path d="M135.326 591.818H135.285L129.231 591.006L129.458 583.472C129.468 583.367 129.517 583.268 129.595 583.196C129.673 583.124 129.775 583.084 129.881 583.082C129.934 583.084 129.987 583.097 130.035 583.119C130.084 583.142 130.127 583.173 130.164 583.213C130.2 583.252 130.228 583.298 130.247 583.348C130.265 583.398 130.273 583.451 130.271 583.505L130.068 590.299L135.391 591.038C135.444 591.044 135.496 591.061 135.542 591.087C135.589 591.113 135.63 591.149 135.662 591.191C135.695 591.234 135.719 591.282 135.732 591.334C135.745 591.386 135.748 591.44 135.74 591.493C135.72 591.587 135.667 591.671 135.591 591.73C135.516 591.789 135.422 591.82 135.326 591.818Z" fill="#316FCC"/>
<path d="M123.762 596.914L123.819 591.054C123.823 590.949 123.868 590.849 123.943 590.775C124.019 590.701 124.12 590.658 124.225 590.656C124.278 590.656 124.331 590.667 124.38 590.687C124.429 590.708 124.473 590.738 124.51 590.776C124.547 590.814 124.576 590.858 124.596 590.908C124.615 590.957 124.625 591.01 124.624 591.063L124.575 596.077L130.946 595.898C131.053 595.9 131.154 595.942 131.231 596.016C131.308 596.089 131.354 596.19 131.36 596.296C131.363 596.35 131.354 596.403 131.335 596.453C131.316 596.504 131.287 596.549 131.25 596.588C131.212 596.627 131.168 596.658 131.118 596.679C131.069 596.7 131.016 596.71 130.962 596.71L123.762 596.914Z" fill="#316FCC"/>
<path d="M149.327 612.792H54.1021C54.1021 612.792 78.1806 604.934 78.7901 602.708C79.3996 600.481 79.3671 598.937 82.3088 597.019C85.2506 595.101 89.265 593.89 90.3865 591.769C91.5079 589.648 94.9617 586.227 96.1562 585.228C97.3508 584.228 111.637 591.412 111.808 591.574C111.978 591.737 115.944 599.53 117.301 601.277C118.658 603.025 128.004 600.895 130.238 602.732C132.473 604.569 139.99 609.339 139.99 609.339C139.99 609.339 143.647 608.802 149.327 612.792Z" fill="#263238"/>
<path opacity="0.2" d="M149.327 612.792H54.1021C54.1021 612.792 78.1806 604.934 78.7901 602.708C79.3996 600.481 79.3671 598.937 82.3088 597.019C85.2506 595.101 89.265 593.89 90.3865 591.769C91.5079 589.648 94.9617 586.227 96.1562 585.228C97.3508 584.228 111.637 591.412 111.808 591.574C111.978 591.737 115.944 599.53 117.301 601.277C118.658 603.025 128.004 600.895 130.238 602.732C132.473 604.569 139.99 609.339 139.99 609.339C139.99 609.339 143.647 608.802 149.327 612.792Z" fill="white"/>
<path d="M173.479 596.532C173.479 596.532 176.47 596.369 176.73 588.194C176.99 580.019 171.756 577.833 167.701 578.833C167.701 578.833 168.294 573.014 165.67 573.225C163.045 573.437 163.232 577.289 163.232 577.289C163.232 577.289 162.33 569.032 158.746 569.024C155.162 569.016 158.746 578.776 158.746 578.776C158.746 578.776 153.789 576.395 151.968 578.776C150.148 581.157 154.244 583.952 154.244 583.952C154.244 583.952 147.808 586.049 150.498 592.721C150.498 592.721 146.02 593.419 144.76 596.402C144.76 596.402 145.118 590.38 143.509 590.786C141.9 591.193 142.249 596.475 142.249 596.475C142.249 596.475 139.568 590.665 137.235 592.721C134.903 594.777 138.308 599.685 138.308 599.685C138.308 599.685 133.83 597.507 133.107 600.392C132.384 603.277 135.618 604.349 135.618 604.349C135.618 604.349 130.954 603.277 130.954 608.624C130.954 608.624 122.014 607.771 119.845 612.573H173.268L173.479 596.532Z" fill="#263238"/>
<path opacity="0.3" d="M173.479 596.532C173.479 596.532 176.47 596.369 176.73 588.194C176.99 580.019 171.756 577.833 167.701 578.833C167.701 578.833 168.294 573.014 165.67 573.225C163.045 573.437 163.232 577.289 163.232 577.289C163.232 577.289 162.33 569.032 158.746 569.024C155.162 569.016 158.746 578.776 158.746 578.776C158.746 578.776 153.789 576.395 151.968 578.776C150.148 581.157 154.244 583.952 154.244 583.952C154.244 583.952 147.808 586.049 150.498 592.721C150.498 592.721 146.02 593.419 144.76 596.402C144.76 596.402 145.118 590.38 143.509 590.786C141.9 591.193 142.249 596.475 142.249 596.475C142.249 596.475 139.568 590.665 137.235 592.721C134.903 594.777 138.308 599.685 138.308 599.685C138.308 599.685 133.83 597.507 133.107 600.392C132.384 603.277 135.618 604.349 135.618 604.349C135.618 604.349 130.954 603.277 130.954 608.624C130.954 608.624 122.014 607.771 119.845 612.573H173.268L173.479 596.532Z" fill="white"/>
<path d="M157.739 612.63H236.346L235.208 608.234L228.414 605.78L235.208 596.377L230.625 586.016L217.606 586.569L220.076 570.218L217.053 563.018L206.513 561.629L209.008 550.821L204.953 540.297H198.712L179.859 573.152L178.551 569.113L173.561 564.676L168.271 570.218L157.739 612.63Z" fill="#316FCC"/>
<path opacity="0.2" d="M157.739 612.63H236.346L235.208 608.234L228.414 605.78L235.208 596.378L228.13 597.621L215.94 605.049L219.085 593.355L217.606 586.569L214.095 582.457L202.45 594.135L209.285 590.429L210.951 593.168L207.253 606.357L195.055 608.169L186.742 604.585L186.929 591.429L193.024 587.991L198.712 594.135L204.953 565.448L197.038 580.604L192.284 576.46L183.784 579.865L179.859 573.152L178.551 569.114L179.225 590.25L176.95 602.481L173.561 598.742L169.002 597.621L157.739 612.63Z" fill="black"/>
<path d="M154.788 612.443C154.788 612.443 150.839 602.83 151.481 600.839C152.123 598.848 155.097 605.901 155.097 605.901C155.097 605.901 153.472 589.421 156.064 588.324C158.656 587.227 157.933 602.448 157.933 602.448C157.933 602.448 162.069 579.694 166.011 580.108C169.952 580.523 161.2 602.724 161.2 602.724C161.2 602.724 166.702 592.436 169.326 593.736C171.951 595.036 163.321 605.406 163.321 605.406C163.321 605.406 167.734 602.448 168.351 604.057C168.969 605.666 159.94 611.484 154.788 612.443Z" fill="#263238"/>
<path opacity="0.2" d="M154.788 612.443C154.788 612.443 150.839 602.83 151.481 600.839C152.123 598.848 155.097 605.901 155.097 605.901C155.097 605.901 153.472 589.421 156.064 588.324C158.656 587.227 157.933 602.448 157.933 602.448C157.933 602.448 162.069 579.694 166.011 580.108C169.952 580.523 161.2 602.724 161.2 602.724C161.2 602.724 166.702 592.436 169.326 593.736C171.951 595.036 163.321 605.406 163.321 605.406C163.321 605.406 167.734 602.448 168.351 604.057C168.969 605.666 159.94 611.484 154.788 612.443Z" fill="white"/>
<path d="M154.789 612.443C154.789 612.443 145.346 613.345 143.997 612.289C142.648 611.232 148.93 610.924 148.93 610.924C148.93 610.924 135.716 607.535 135.602 605.235C135.488 602.935 147.06 607.779 147.06 607.779C147.06 607.779 130.564 598.116 132.035 595.199C133.506 592.282 148.158 605.292 148.158 605.292C148.158 605.292 141.754 598.141 143.485 596.499C145.216 594.858 150.799 604.439 150.799 604.439C150.799 604.439 149.75 600.189 151.172 600.164C152.595 600.14 155.471 608.153 154.789 612.443Z" fill="#263238"/>
<path opacity="0.2" d="M154.789 612.443C154.789 612.443 145.346 613.345 143.997 612.289C142.648 611.232 148.93 610.924 148.93 610.924C148.93 610.924 135.716 607.535 135.602 605.235C135.488 602.935 147.06 607.779 147.06 607.779C147.06 607.779 130.564 598.116 132.035 595.199C133.506 592.282 148.158 605.292 148.158 605.292C148.158 605.292 141.754 598.141 143.485 596.499C145.216 594.858 150.799 604.439 150.799 604.439C150.799 604.439 149.75 600.189 151.172 600.164C152.595 600.14 155.471 608.153 154.789 612.443Z" fill="white"/>
<path d="M154.789 612.443C154.789 612.443 141.99 605.69 141.299 603.504C140.608 601.318 147.8 605.78 147.8 605.78C147.8 605.78 135.797 591.908 137.455 589.25C139.113 586.593 148.158 600.847 148.158 600.847C148.158 600.847 137.374 577.581 141.226 575.468C145.078 573.355 151.294 599.035 151.294 599.035C151.294 599.035 149.71 586.211 152.92 585.74C156.13 585.269 154.935 600.132 154.935 600.132C154.935 600.132 157.04 594.638 158.632 595.703C160.225 596.767 158.852 608.258 154.789 612.443Z" fill="#263238"/>
<path opacity="0.4" d="M154.789 612.443C154.789 612.443 141.99 605.69 141.299 603.504C140.608 601.318 147.8 605.78 147.8 605.78C147.8 605.78 135.797 591.908 137.455 589.25C139.113 586.593 148.158 600.847 148.158 600.847C148.158 600.847 137.374 577.581 141.226 575.468C145.078 573.355 151.294 599.035 151.294 599.035C151.294 599.035 149.71 586.211 152.92 585.74C156.13 585.269 154.935 600.132 154.935 600.132C154.935 600.132 157.04 594.638 158.632 595.703C160.225 596.767 158.852 608.258 154.789 612.443Z" fill="white"/>
</svg>
