<svg width="414" height="736" viewBox="0 0 414 736" fill="none" xmlns="http://www.w3.org/2000/svg">
<rect width="414" height="736" fill="#225094"/>
<path fill-rule="evenodd" clip-rule="evenodd" d="M164.658 140.38H118.9L122.201 131H167.96L164.658 140.38ZM163.006 145.069H117.247L113.945 154.45H159.705L163.006 145.069ZM158.06 159.14H112.302L109 168.52H154.759L158.06 159.14Z" fill="#00A5FF"/>
<path fill-rule="evenodd" clip-rule="evenodd" d="M276.807 189.004H285.127C288.283 189.004 290.196 188.262 291.535 186.593C292.205 185.758 293.161 184.274 293.161 181.492C293.161 178.71 292.205 176.763 290.292 175.372C289.145 174.537 287.614 174.074 285.032 174.074H276.807V189.004ZM265.808 197.999V144.4H301.769L298.613 153.395H276.807V165.264H285.701C292.874 165.264 296.604 166.934 299.186 169.067C301.195 170.736 304.638 174.445 304.638 181.771C304.638 189.004 301.099 192.992 298.134 195.031C294.691 197.35 291.058 197.999 283.693 197.999H265.808ZM233.96 197.999V153.395H217.988V144.4H262.365L259.209 153.395H245.054V197.999H233.96ZM189.679 165.821H195.896C197.808 165.821 198.764 165.821 199.721 165.542C202.303 164.801 203.929 162.575 203.929 159.515C203.929 155.898 202.208 154.322 199.721 153.58C198.669 153.302 197.617 153.209 195.513 153.209H189.679V165.821ZM189.775 175.094V189.189H197.426C199.721 189.189 201.825 189.004 203.355 187.612C204.885 186.222 205.555 184.46 205.555 182.142C205.555 180.38 205.077 178.71 204.121 177.505C202.495 175.557 200.486 175.094 197.043 175.094H189.775ZM207.467 169.438V169.624C209.571 170.366 211.579 171.664 212.631 172.499C215.883 175.095 217.318 178.526 217.318 182.977C217.318 190.303 213.301 195.589 206.702 197.258C204.693 197.814 202.59 198 198.668 198H178.679V144.4H196.373C200.007 144.4 202.494 144.586 204.693 145.143C211.101 146.812 215.31 151.077 215.31 157.847C215.31 161.464 213.97 164.524 211.771 166.564C210.814 167.491 209.475 168.604 207.467 169.438Z" fill="white"/>
<path d="M69.0645 252H63.7734V231.029H52.6113V252H47.2852V226.635H69.0645V252ZM75.6211 258.979C74.4961 258.979 73.8516 258.961 73.6875 258.926V254.971C73.793 254.994 74.2207 255.006 74.9707 255.006C75.9199 255.006 76.6406 254.842 77.1328 254.514C77.625 254.197 77.959 253.664 78.1348 252.914C78.1348 252.902 78.1641 252.756 78.2227 252.475C78.2812 252.193 78.3047 252.041 78.293 252.018L71.7363 233.156H77.3789L81.3867 247.887H81.4746L85.4824 233.156H90.8965L84.4102 252.422C83.6016 254.836 82.5352 256.529 81.2109 257.502C79.8984 258.486 78.0352 258.979 75.6211 258.979ZM108.387 233.156V237.023H102.779V252H97.6641V237.023H92.0391V233.156H108.387ZM118.951 242.385H116.121V248.168H118.951C119.877 248.168 120.615 247.904 121.166 247.377C121.729 246.838 122.01 246.135 122.01 245.268C122.01 244.4 121.729 243.703 121.166 243.176C120.615 242.648 119.877 242.385 118.951 242.385ZM111.006 252V233.156H116.121V238.605H119.795C122.021 238.605 123.791 239.209 125.104 240.416C126.428 241.623 127.09 243.252 127.09 245.303C127.09 247.354 126.428 248.982 125.104 250.189C123.791 251.396 122.021 252 119.795 252H111.006ZM145.16 236.408H142.119V240.785H144.896C145.834 240.785 146.549 240.598 147.041 240.223C147.545 239.836 147.797 239.285 147.797 238.57C147.797 237.879 147.568 237.346 147.111 236.971C146.654 236.596 146.004 236.408 145.16 236.408ZM145.16 243.756H142.119V248.748H145.389C146.396 248.748 147.164 248.537 147.691 248.115C148.23 247.682 148.5 247.055 148.5 246.234C148.5 244.582 147.387 243.756 145.16 243.756ZM137.092 252V233.156H146.531C148.488 233.156 150.023 233.578 151.137 234.422C152.25 235.254 152.807 236.414 152.807 237.902C152.807 238.91 152.479 239.807 151.822 240.592C151.178 241.365 150.369 241.828 149.396 241.98V242.121C150.662 242.273 151.688 242.754 152.473 243.562C153.258 244.371 153.65 245.367 153.65 246.551C153.65 248.203 153.023 249.527 151.77 250.523C150.527 251.508 148.84 252 146.707 252H137.092ZM168.908 252H163.881V233.156H168.908V244.934H169.049L176.537 233.156H181.564V252H176.537V240.082H176.396L168.908 252ZM197.613 252V244.283H190.371V252H185.256V233.156H190.371V240.398H197.613V233.156H202.729V252H197.613ZM214.488 236.408H211.447V240.785H214.225C215.162 240.785 215.877 240.598 216.369 240.223C216.873 239.836 217.125 239.285 217.125 238.57C217.125 237.879 216.896 237.346 216.439 236.971C215.982 236.596 215.332 236.408 214.488 236.408ZM214.488 243.756H211.447V248.748H214.717C215.725 248.748 216.492 248.537 217.02 248.115C217.559 247.682 217.828 247.055 217.828 246.234C217.828 244.582 216.715 243.756 214.488 243.756ZM206.42 252V233.156H215.859C217.816 233.156 219.352 233.578 220.465 234.422C221.578 235.254 222.135 236.414 222.135 237.902C222.135 238.91 221.807 239.807 221.15 240.592C220.506 241.365 219.697 241.828 218.725 241.98V242.121C219.99 242.273 221.016 242.754 221.801 243.562C222.586 244.371 222.979 245.367 222.979 246.551C222.979 248.203 222.352 249.527 221.098 250.523C219.855 251.508 218.168 252 216.035 252H206.42ZM234.527 236.549C233.414 236.549 232.482 236.93 231.732 237.691C230.994 238.453 230.578 239.426 230.484 240.609H238.482C238.424 239.402 238.031 238.424 237.305 237.674C236.59 236.924 235.664 236.549 234.527 236.549ZM238.553 246.234H243.264C242.982 248.086 242.057 249.58 240.486 250.717C238.928 251.842 236.988 252.404 234.668 252.404C231.773 252.404 229.5 251.537 227.848 249.803C226.207 248.068 225.387 245.689 225.387 242.666C225.387 239.654 226.207 237.252 227.848 235.459C229.488 233.654 231.697 232.752 234.475 232.752C237.205 232.752 239.379 233.607 240.996 235.318C242.613 237.029 243.422 239.32 243.422 242.191V243.756H230.432V244.072C230.432 245.42 230.824 246.516 231.609 247.359C232.406 248.191 233.455 248.607 234.756 248.607C235.693 248.607 236.502 248.396 237.182 247.975C237.861 247.541 238.318 246.961 238.553 246.234ZM263.355 239.59H258.557C258.334 238.734 257.912 238.055 257.291 237.551C256.67 237.035 255.891 236.777 254.953 236.777C253.688 236.777 252.686 237.293 251.947 238.324C251.221 239.355 250.857 240.768 250.857 242.561C250.857 244.389 251.221 245.818 251.947 246.85C252.686 247.869 253.693 248.379 254.971 248.379C255.92 248.379 256.705 248.133 257.326 247.641C257.947 247.148 258.369 246.457 258.592 245.566H263.373C263.139 247.664 262.266 249.328 260.754 250.559C259.242 251.789 257.297 252.404 254.918 252.404C252.082 252.404 249.832 251.525 248.168 249.768C246.516 248.01 245.689 245.607 245.689 242.561C245.689 239.561 246.516 237.176 248.168 235.406C249.832 233.637 252.07 232.752 254.883 232.752C257.262 232.752 259.201 233.385 260.701 234.65C262.213 235.916 263.098 237.562 263.355 239.59ZM281.039 233.156V237.023H275.432V252H270.316V237.023H264.691V233.156H281.039ZM288.686 252H283.658V233.156H288.686V244.934H288.826L296.314 233.156H301.342V252H296.314V240.082H296.174L288.686 252ZM325.09 256.887H320.414V252H305.033V233.156H310.148V248.115H317.127V233.156H322.242V248.115H325.09V256.887ZM332.42 252H327.393V233.156H332.42V244.934H332.561L340.049 233.156H345.076V252H340.049V240.082H339.908L332.42 252ZM353.795 252H348.768V233.156H353.795V244.934H353.936L361.424 233.156H366.451V252H361.424V240.082H361.283L353.795 252Z" fill="white"/>
<path d="M153.78 676.34V673.815H155.832C156.605 673.815 157.232 673.618 157.712 673.225C158.199 672.831 158.442 672.315 158.442 671.678C158.442 671.04 158.213 670.539 157.755 670.174C157.297 669.809 156.67 669.626 155.875 669.626C155.073 669.626 154.425 669.826 153.931 670.228C153.437 670.629 153.168 671.169 153.125 671.85H150.128C150.178 670.389 150.726 669.232 151.771 668.38C152.824 667.528 154.221 667.102 155.961 667.102C157.622 667.102 158.965 667.492 159.989 668.272C161.021 669.046 161.536 670.056 161.536 671.302C161.536 672.175 161.268 672.938 160.73 673.59C160.193 674.242 159.488 674.66 158.614 674.847V674.933C159.66 675.047 160.491 675.448 161.106 676.136C161.722 676.816 162.03 677.675 162.03 678.714C162.03 680.075 161.45 681.195 160.29 682.076C159.137 682.957 157.669 683.397 155.886 683.397C154.11 683.397 152.667 682.961 151.557 682.087C150.447 681.206 149.856 680.042 149.784 678.596H152.889C152.939 679.262 153.236 679.792 153.78 680.186C154.325 680.579 155.037 680.776 155.918 680.776C156.749 680.776 157.418 680.569 157.927 680.153C158.442 679.731 158.7 679.179 158.7 678.499C158.7 677.826 158.45 677.299 157.948 676.92C157.447 676.533 156.752 676.34 155.864 676.34H153.78ZM168.39 680.916C169.084 680.916 169.672 680.715 170.151 680.314C170.638 679.906 170.882 679.394 170.882 678.778V677.94L168.454 678.091C167.867 678.134 167.412 678.281 167.09 678.531C166.775 678.782 166.617 679.111 166.617 679.52C166.617 679.949 166.778 680.289 167.101 680.54C167.423 680.791 167.853 680.916 168.39 680.916ZM167.358 683.183C166.248 683.183 165.328 682.857 164.598 682.205C163.867 681.553 163.502 680.715 163.502 679.691C163.502 678.646 163.889 677.826 164.662 677.231C165.436 676.637 166.542 676.297 167.981 676.211L170.882 676.039V675.276C170.882 674.746 170.706 674.331 170.355 674.03C170.012 673.729 169.543 673.579 168.948 673.579C168.375 673.579 167.906 673.708 167.541 673.966C167.183 674.224 166.965 674.571 166.886 675.008H164.018C164.075 673.876 164.558 672.967 165.468 672.279C166.377 671.585 167.584 671.237 169.088 671.237C170.563 671.237 171.745 671.588 172.633 672.29C173.521 672.992 173.965 673.923 173.965 675.083V683H170.936V681.238H170.871C170.556 681.84 170.076 682.316 169.432 682.667C168.787 683.011 168.096 683.183 167.358 683.183ZM184.213 673.848H179.314V683H176.188V671.484H184.213V673.848ZM192.753 671.302C194.214 671.302 195.363 671.828 196.201 672.881C197.046 673.934 197.469 675.387 197.469 677.242C197.469 679.09 197.053 680.544 196.223 681.604C195.392 682.656 194.253 683.183 192.807 683.183C191.983 683.183 191.256 682.996 190.626 682.624C190.003 682.244 189.537 681.725 189.229 681.066H189.165V686.76H186.028V671.484H189.122V673.493H189.187C189.502 672.806 189.967 672.269 190.583 671.882C191.206 671.495 191.929 671.302 192.753 671.302ZM191.7 680.658C192.481 680.658 193.1 680.35 193.559 679.734C194.024 679.118 194.257 678.288 194.257 677.242C194.257 676.197 194.024 675.366 193.559 674.75C193.1 674.127 192.481 673.815 191.7 673.815C190.934 673.815 190.318 674.131 189.853 674.761C189.387 675.384 189.154 676.211 189.154 677.242C189.154 678.281 189.383 679.111 189.842 679.734C190.307 680.35 190.927 680.658 191.7 680.658ZM200.52 687.265C199.832 687.265 199.438 687.254 199.338 687.232V684.815C199.402 684.83 199.664 684.837 200.122 684.837C200.702 684.837 201.143 684.737 201.443 684.536C201.744 684.343 201.948 684.017 202.056 683.559C202.056 683.551 202.074 683.462 202.109 683.29C202.145 683.118 202.16 683.025 202.152 683.011L198.146 671.484H201.594L204.043 680.486H204.097L206.546 671.484H209.854L205.891 683.258C205.396 684.733 204.745 685.768 203.936 686.362C203.133 686.964 201.995 687.265 200.52 687.265ZM215.698 683.247C214.201 683.247 212.995 682.903 212.078 682.216C211.161 681.521 210.649 680.565 210.542 679.348H213.528C213.8 680.329 214.524 680.819 215.698 680.819C216.314 680.819 216.79 680.694 217.127 680.443C217.464 680.193 217.632 679.856 217.632 679.434C217.632 678.553 216.991 678.112 215.709 678.112H214.119V676.071H215.623C216.74 676.071 217.299 675.667 217.299 674.857C217.299 674.471 217.156 674.166 216.869 673.944C216.59 673.715 216.182 673.601 215.645 673.601C215.093 673.601 214.649 673.719 214.312 673.955C213.983 674.184 213.783 674.517 213.711 674.954H210.757C210.871 673.801 211.358 672.895 212.218 672.236C213.084 671.57 214.219 671.237 215.623 671.237C217.148 671.237 218.316 671.524 219.125 672.097C219.941 672.67 220.35 673.475 220.35 674.514C220.35 675.094 220.196 675.599 219.888 676.028C219.58 676.458 219.157 676.748 218.62 676.898V676.984C219.315 677.163 219.845 677.475 220.21 677.919C220.575 678.363 220.758 678.907 220.758 679.552C220.758 680.69 220.303 681.593 219.394 682.259C218.491 682.918 217.259 683.247 215.698 683.247ZM228.686 676.812L233.552 683H229.76L225.871 678.059H225.785V683H222.659V671.484H225.785V676.114H225.871L229.695 671.484H233.283L228.686 676.812ZM239.073 680.916C239.768 680.916 240.355 680.715 240.835 680.314C241.322 679.906 241.565 679.394 241.565 678.778V677.94L239.138 678.091C238.55 678.134 238.096 678.281 237.773 678.531C237.458 678.782 237.301 679.111 237.301 679.52C237.301 679.949 237.462 680.289 237.784 680.54C238.106 680.791 238.536 680.916 239.073 680.916ZM238.042 683.183C236.932 683.183 236.012 682.857 235.281 682.205C234.551 681.553 234.186 680.715 234.186 679.691C234.186 678.646 234.572 677.826 235.346 677.231C236.119 676.637 237.226 676.297 238.665 676.211L241.565 676.039V675.276C241.565 674.746 241.39 674.331 241.039 674.03C240.695 673.729 240.226 673.579 239.632 673.579C239.059 673.579 238.59 673.708 238.225 673.966C237.867 674.224 237.648 674.571 237.569 675.008H234.701C234.758 673.876 235.242 672.967 236.151 672.279C237.061 671.585 238.268 671.237 239.771 671.237C241.247 671.237 242.428 671.588 243.316 672.29C244.204 672.992 244.648 673.923 244.648 675.083V683H241.619V681.238H241.555C241.24 681.84 240.76 682.316 240.115 682.667C239.471 683.011 238.78 683.183 238.042 683.183ZM250.03 682.624C249.694 682.961 249.285 683.129 248.806 683.129C248.326 683.129 247.918 682.961 247.581 682.624C247.244 682.287 247.076 681.879 247.076 681.399C247.076 680.92 247.244 680.511 247.581 680.175C247.918 679.838 248.326 679.67 248.806 679.67C249.285 679.67 249.694 679.838 250.03 680.175C250.367 680.511 250.535 680.92 250.535 681.399C250.535 681.879 250.367 682.287 250.03 682.624ZM256.153 682.624C255.817 682.961 255.409 683.129 254.929 683.129C254.449 683.129 254.041 682.961 253.704 682.624C253.368 682.287 253.199 681.879 253.199 681.399C253.199 680.92 253.368 680.511 253.704 680.175C254.041 679.838 254.449 679.67 254.929 679.67C255.409 679.67 255.817 679.838 256.153 680.175C256.49 680.511 256.658 680.92 256.658 681.399C256.658 681.879 256.49 682.287 256.153 682.624ZM262.276 682.624C261.94 682.961 261.532 683.129 261.052 683.129C260.572 683.129 260.164 682.961 259.827 682.624C259.491 682.287 259.322 681.879 259.322 681.399C259.322 680.92 259.491 680.511 259.827 680.175C260.164 679.838 260.572 679.67 261.052 679.67C261.532 679.67 261.94 679.838 262.276 680.175C262.613 680.511 262.781 680.92 262.781 681.399C262.781 681.879 262.613 682.287 262.276 682.624Z" fill="white"/>
<path fill-rule="evenodd" clip-rule="evenodd" d="M184.589 431.645C185.711 431.645 186.62 432.554 186.62 433.676V475.297C186.62 476.419 187.53 477.329 188.652 477.329H230.487C231.609 477.329 232.518 478.238 232.518 479.36C232.518 480.482 231.609 481.391 230.487 481.391H188.652C185.286 481.391 182.558 478.663 182.558 475.297V433.676C182.558 432.554 183.467 431.645 184.589 431.645ZM231.496 443.893C231.068 443.512 230.498 443.329 229.928 443.391L220.487 444.408C219.372 444.528 218.565 445.529 218.685 446.645C218.805 447.76 219.807 448.567 220.922 448.447L225.213 447.985L214.057 459.141L205.12 450.204C204.74 449.823 204.223 449.609 203.684 449.609C203.145 449.609 202.629 449.823 202.248 450.204L191.875 460.577C191.082 461.37 191.082 462.656 191.875 463.449C192.668 464.243 193.954 464.243 194.747 463.449L203.684 454.513L212.621 463.449C213.002 463.83 213.518 464.044 214.057 464.044C214.596 464.044 215.113 463.83 215.494 463.449L228.161 450.782L228.195 454.696C228.205 455.817 229.122 456.719 230.244 456.709C231.366 456.699 232.267 455.782 232.258 454.66L232.177 445.393C232.172 444.819 231.925 444.275 231.496 443.893Z" fill="white"/>
<path fill-rule="evenodd" clip-rule="evenodd" d="M128.172 381.528L129.408 380.815C130.487 380.192 130.856 378.812 130.233 377.733C129.61 376.654 128.231 376.284 127.152 376.907L125.613 377.796C125.162 378.056 125.001 378.634 125.265 379.092L126.396 381.052L125.923 381.326C125.612 381.505 125.505 381.903 125.685 382.214C125.864 382.524 126.262 382.631 126.573 382.451L127.046 382.178L127.52 382.998L127.039 383.276C126.728 383.456 126.622 383.853 126.801 384.164C126.981 384.475 127.378 384.582 127.689 384.402L128.17 384.124L128.488 384.675C128.667 384.985 129.065 385.092 129.376 384.912C129.687 384.733 129.793 384.335 129.614 384.025L129.296 383.474L131.064 382.453C131.375 382.274 131.481 381.876 131.302 381.566C131.122 381.255 130.725 381.148 130.414 381.328L128.646 382.348L128.172 381.528ZM126.566 378.746L127.522 380.402L128.758 379.689C129.215 379.425 129.371 378.84 129.107 378.383C128.844 377.926 128.259 377.769 127.802 378.033L126.566 378.746Z" fill="white" fill-opacity="0.83"/>
<path fill-rule="evenodd" clip-rule="evenodd" d="M135.624 379.258C134.405 377.146 130.625 374.96 128.731 373.961L128.353 369.596C128.309 369.085 127.749 368.794 127.306 369.05L118.819 373.95C118.375 374.206 118.348 374.837 118.768 375.13L122.36 377.64C122.278 379.78 122.28 384.146 123.5 386.258C125.313 389.398 128.598 389.088 132.062 387.088C135.526 385.088 137.437 382.398 135.624 379.258ZM120.285 374.604L127.139 370.647L127.415 373.837L122.909 376.438L120.285 374.604ZM123.682 381.094C123.601 379.702 123.629 378.371 123.666 377.502L127.958 375.024C128.729 375.426 129.896 376.067 131.061 376.834C132.625 377.862 133.958 378.972 134.499 379.908C135.191 381.107 135.141 382.093 134.669 383.001C134.148 384.001 133.047 385.019 131.412 385.963C129.777 386.907 128.345 387.351 127.219 387.302C126.197 387.257 125.318 386.807 124.626 385.608C124.085 384.672 123.791 382.963 123.682 381.094Z" fill="white" fill-opacity="0.83"/>
<path fill-rule="evenodd" clip-rule="evenodd" d="M177.369 573.649L175.82 576.325C174.994 577.49 172.34 577.266 169.783 575.79C169.589 575.678 169.402 575.562 169.22 575.443C167.071 574.03 165.818 572.152 166.248 570.96C166.263 570.916 166.281 570.872 166.3 570.829L167.488 568.773C167.662 568.47 168.056 568.377 168.36 568.548C168.671 568.722 168.791 569.115 168.613 569.423L168.325 569.922C169.486 569.93 170.973 570.368 172.431 571.21C173.886 572.05 175.008 573.117 175.596 574.116L176.243 572.998L176.241 572.997C176.25 572.951 176.304 572.643 175.835 571.957C175.436 571.372 174.577 570.56 173.632 569.909C173.52 569.832 173.407 569.757 173.293 569.685C173.051 569.533 173.223 569.011 173.486 568.902C173.854 568.749 174.229 568.732 174.553 568.964C175.653 569.752 176.551 570.698 177.063 571.58L177.745 570.402L177.741 570.399C177.75 570.353 177.804 570.045 177.335 569.358C176.98 568.838 176.185 568.129 175.371 567.545C175.089 567.343 174.995 566.959 175.169 566.658C175.354 566.337 175.771 566.234 176.072 566.451C177.15 567.229 178.039 568.15 178.551 569.009L179.235 567.826C179.237 567.819 179.239 567.807 179.241 567.79C179.244 567.753 179.243 567.687 179.221 567.588C179.176 567.384 179.054 567.092 178.807 566.735C178.452 566.221 177.66 565.518 176.859 564.943C176.576 564.741 176.482 564.357 176.656 564.056C176.842 563.735 177.259 563.632 177.56 563.849C179.59 565.316 180.959 567.306 180.39 568.425L177.389 573.613C177.383 573.625 177.376 573.637 177.369 573.649ZM167.924 572.497C168.346 573.1 169.036 573.767 169.941 574.361C170.099 574.465 170.264 574.566 170.434 574.665C171.582 575.327 172.703 575.678 173.564 575.753C173.994 575.79 174.312 575.755 174.519 575.694C174.619 575.664 174.681 575.632 174.716 575.609C174.728 575.601 174.737 575.595 174.744 575.589L174.746 575.585C174.758 575.505 174.772 575.194 174.338 574.559C173.848 573.84 172.966 573.02 171.781 572.336C170.597 571.652 169.445 571.298 168.578 571.233C167.755 571.171 167.513 571.368 167.474 571.401C167.473 571.408 167.473 571.417 167.472 571.427C167.47 571.469 167.473 571.538 167.497 571.64C167.548 571.85 167.676 572.143 167.924 572.497Z" fill="white" fill-opacity="0.29"/>
<path fill-rule="evenodd" clip-rule="evenodd" d="M176.189 561.803L174.745 564.305C174.731 564.333 174.716 564.361 174.7 564.389L174.697 564.387L173.173 567.027C173.152 567.056 173.13 567.085 173.107 567.113C172.272 568.238 169.644 567.996 167.103 566.529C164.473 565.01 162.932 562.754 163.662 561.488C163.694 561.435 163.728 561.383 163.766 561.335L166.663 556.303C167.466 555.065 170.164 555.258 172.754 556.753C175.344 558.248 176.859 560.489 176.189 561.803ZM172.064 566.317C171.954 566.393 171.633 566.542 170.892 566.482C170.029 566.413 168.909 566.067 167.763 565.405C166.617 564.744 165.758 563.946 165.266 563.234C164.817 562.582 164.81 562.225 164.826 562.113C164.92 562.051 165.201 561.918 165.895 561.971C166.762 562.036 167.914 562.39 169.098 563.074C170.282 563.757 171.165 564.578 171.655 565.296C172.079 565.917 172.075 566.229 172.064 566.317ZM172.92 564.865C172.334 563.863 171.209 562.791 169.748 561.948C168.295 561.109 166.814 560.671 165.655 560.66L166.3 559.539L166.303 559.54C166.338 559.509 166.578 559.308 167.407 559.371C168.274 559.436 169.426 559.79 170.61 560.474C171.794 561.158 172.676 561.978 173.167 562.696C173.627 563.371 173.583 563.68 173.573 563.735L172.92 564.865ZM171.26 559.348C172.717 560.189 173.839 561.256 174.426 562.256L175.034 561.204C175.05 561.148 175.112 560.802 174.619 560.076C174.131 559.358 173.265 558.549 172.104 557.879C170.943 557.209 169.81 556.863 168.944 556.8C168.07 556.736 167.801 556.961 167.76 557.004L167.152 558.06C168.312 558.067 169.801 558.505 171.26 559.348Z" fill="white" fill-opacity="0.29"/>
<path d="M315.239 421.625C313.426 421.584 312.015 422.714 311.524 424.219C310.926 426.051 311.737 428.203 314.151 429.299C315.222 429.786 315.799 430.369 316.073 430.878C316.343 431.379 316.351 431.857 316.204 432.255C315.918 433.034 314.873 433.795 313.229 433.355C312.353 433.12 311.904 432.613 311.669 432.111C311.409 431.555 311.426 431.037 311.462 430.902C311.602 430.382 311.293 429.848 310.773 429.708C310.253 429.569 309.718 429.878 309.579 430.398C309.409 431.032 309.474 432.021 309.903 432.938C310.241 433.66 310.816 434.361 311.699 434.836L311.386 436.003C311.247 436.523 311.556 437.058 312.076 437.197C312.596 437.337 313.131 437.028 313.27 436.508L313.567 435.398C315.655 435.63 317.421 434.594 318.034 432.929C318.378 431.994 318.318 430.934 317.79 429.953C317.266 428.981 316.315 428.14 314.957 427.524C313.359 426.798 313.118 425.622 313.378 424.824C313.65 423.99 314.524 423.32 315.825 423.669C316.674 423.896 317.058 424.365 317.244 424.833C317.45 425.353 317.428 425.929 317.336 426.271C317.197 426.791 317.506 427.326 318.026 427.465C318.546 427.605 319.081 427.296 319.22 426.776C319.403 426.092 319.44 425.081 319.056 424.114C318.733 423.299 318.121 422.549 317.136 422.08L317.42 421.019C317.56 420.499 317.251 419.965 316.731 419.825C316.211 419.686 315.676 419.995 315.537 420.515L315.239 421.625Z" fill="white" fill-opacity="0.73"/>
<path fill-rule="evenodd" clip-rule="evenodd" d="M301.494 425.04C303.424 417.838 310.826 413.564 318.028 415.494C325.23 417.424 329.504 424.826 327.574 432.028C325.645 439.23 318.242 443.504 311.04 441.574C303.838 439.644 299.565 432.242 301.494 425.04ZM303.378 425.545C305.029 419.383 311.362 415.727 317.524 417.378C323.685 419.029 327.342 425.362 325.691 431.523C324.04 437.685 317.706 441.341 311.545 439.69C305.383 438.04 301.727 431.706 303.378 425.545Z" fill="white" fill-opacity="0.73"/>
<path fill-rule="evenodd" clip-rule="evenodd" d="M305.072 539.666C305.159 539.068 304.66 538.575 304.056 538.575L298.669 538.575C298.065 538.575 297.575 539.065 297.575 539.669L297.575 545.056C297.575 545.66 298.068 546.159 298.666 546.072C301.977 545.595 304.595 542.977 305.072 539.666ZM298.669 539.669L303.964 539.669C303.505 542.371 301.371 544.505 298.669 544.964L298.669 539.669Z" fill="white" fill-opacity="0.55"/>
<path d="M295.218 545.776C295.558 545.888 295.892 545.622 295.892 545.264C295.892 545.011 295.721 544.792 295.482 544.711C292.93 543.84 291.094 541.422 291.094 538.575C291.094 534.996 293.996 532.094 297.575 532.094C300.422 532.094 302.84 533.93 303.711 536.482C303.792 536.721 304.011 536.892 304.263 536.892C304.622 536.892 304.888 536.558 304.776 536.218C303.785 533.188 300.936 531 297.575 531C293.391 531 290 534.392 290 538.575C290 541.936 292.188 544.785 295.218 545.776Z" fill="white" fill-opacity="0.55"/>
<path fill-rule="evenodd" clip-rule="evenodd" d="M91.5467 492.02C91.3672 491.709 91.4737 491.312 91.7846 491.132L94.6666 489.468C96.2556 488.551 98.2874 489.095 99.2048 490.684C100.122 492.273 99.5778 494.305 97.9888 495.222L95.6697 496.561L96.1939 497.469L98.8091 495.959C99.12 495.78 99.5175 495.886 99.697 496.197C99.8765 496.508 99.77 496.906 99.4591 497.085L96.8439 498.595L97.2678 499.329C97.4473 499.64 97.3408 500.038 97.0299 500.217C96.719 500.397 96.3214 500.29 96.1419 499.979L95.7181 499.245L95.1106 499.596C94.7997 499.775 94.4022 499.669 94.2227 499.358C94.0432 499.047 94.1497 498.649 94.4606 498.47L95.0681 498.119L94.5439 497.211L93.9415 497.559C93.6306 497.739 93.2331 497.632 93.0536 497.321C92.8741 497.01 92.9806 496.613 93.2915 496.433L93.8939 496.085L91.5467 492.02ZM95.0197 495.435L97.3388 494.096C98.306 493.538 98.6374 492.301 98.0789 491.334C97.5205 490.367 96.2838 490.036 95.3166 490.594L92.9975 491.933L95.0197 495.435Z" fill="white" fill-opacity="0.67"/>
<path fill-rule="evenodd" clip-rule="evenodd" d="M104.088 489.794C106.574 494.099 105.099 499.603 100.794 502.088C96.4896 504.574 90.9853 503.099 88.5 498.794C86.0147 494.49 87.4896 488.985 91.7942 486.5C96.0989 484.015 101.603 485.49 104.088 489.794ZM102.963 490.444C105.089 494.127 103.827 498.836 100.144 500.963C96.4614 503.089 91.7521 501.827 89.6258 498.144C87.4995 494.461 88.7614 489.752 92.4442 487.626C96.1271 485.5 100.836 486.761 102.963 490.444Z" fill="white" fill-opacity="0.67"/>
<path d="M234.857 358.433C234.857 357.972 235.229 357.597 235.688 357.597H237.851C238.31 357.597 238.681 357.972 238.681 358.433C238.681 358.895 238.31 359.269 237.851 359.269H235.688C235.229 359.269 234.857 358.895 234.857 358.433Z" fill="white" fill-opacity="0.35"/>
<path d="M246.352 358.433C246.352 357.972 246.724 357.597 247.183 357.597H249.346C249.805 357.597 250.176 357.972 250.176 358.433C250.176 358.895 249.805 359.269 249.346 359.269H247.183C246.724 359.269 246.352 358.895 246.352 358.433Z" fill="white" fill-opacity="0.35"/>
<path d="M241.418 357.597C240.96 357.597 240.588 357.972 240.588 358.433C240.588 358.895 240.96 359.269 241.418 359.269H243.582C244.04 359.269 244.412 358.895 244.412 358.433C244.412 357.972 244.04 357.597 243.582 357.597H241.418Z" fill="white" fill-opacity="0.35"/>
<path fill-rule="evenodd" clip-rule="evenodd" d="M236.071 349.018C235.401 349.018 234.857 349.565 234.857 350.239V353.346C234.857 354.021 235.401 354.568 236.071 354.568H239.059C239.729 354.568 240.273 354.021 240.273 353.346V350.239C240.273 349.565 239.729 349.018 239.059 349.018H236.071ZM236.518 352.896V350.689H238.612V352.896H236.518Z" fill="white" fill-opacity="0.35"/>
<path fill-rule="evenodd" clip-rule="evenodd" d="M234.833 363C232.716 363 231 361.273 231 359.143V348.857C231 346.727 232.716 345 234.833 345H250.167C250.299 345 250.43 345.007 250.559 345.02C252.492 345.217 254 346.86 254 348.857V359.143C254 361.273 252.284 363 250.167 363H234.833ZM252.339 348.857C252.339 347.65 251.366 346.671 250.167 346.671L234.833 346.671C233.634 346.671 232.661 347.65 232.661 348.857L232.661 359.143C232.661 360.35 233.634 361.329 234.833 361.329H250.167C251.366 361.329 252.339 360.35 252.339 359.143V348.857Z" fill="white" fill-opacity="0.35"/>
</svg>
